<svg xmlns="http://www.w3.org/2000/svg" version="1.1" xmlns:xlink="http://www.w3.org/1999/xlink" width="512" height="512" x="0" y="0" viewBox="0 0 32 32" style="enable-background:new 0 0 512 512" xml:space="preserve" class=""><g><path d="M25.3 9H6.7c-.4 0-.7-.3-.7-.8s.3-.8.8-.8h18.5c.4 0 .8.3.8.8s-.4.8-.8.8zM25.3 16H6.7c-.4 0-.7-.3-.7-.8s.3-.8.8-.8h18.5c.4 0 .8.3.8.8s-.4.8-.8.8zM25.3 23H6.7c-.4 0-.7-.3-.7-.8s.3-.8.8-.8h18.5c.4 0 .8.3.8.8s-.4.8-.8.8z" fill="#2C2F73" opacity="1" data-original="#000000" class=""></path></g></svg>