<svg width="161" height="80" viewBox="0 0 161 80" fill="none" xmlns="http://www.w3.org/2000/svg">
<path d="M74.0969 19.1674C76.5584 16.618 79.987 15.0063 83.7672 15.0063C88.8075 15.0063 93.1738 17.8195 95.5182 21.9806C97.5401 21.0722 99.7965 20.574 102.17 20.574C111.254 20.574 118.58 27.988 118.58 37.1308C118.58 46.2737 111.225 53.6876 102.17 53.6876C101.057 53.6876 99.9724 53.5704 98.9467 53.3653C96.8954 57.0283 92.9687 59.5191 88.4559 59.5191C86.5804 59.5191 84.7929 59.0795 83.2105 58.3176C81.1299 63.2114 76.2654 66.6693 70.6097 66.6693C64.7196 66.6693 59.6793 62.9477 57.7453 57.7023C56.8954 57.8781 56.0163 57.966 55.1372 57.966C48.1042 57.966 42.4193 52.2224 42.4193 45.1015C42.4193 40.3543 44.9687 36.1931 48.7782 33.966C47.987 32.1784 47.5475 30.1858 47.5475 28.0759C47.5182 19.9587 54.1702 13.3359 62.3167 13.3359C67.1225 13.3359 71.4009 15.6217 74.0969 19.1674Z" fill="#00A1E0"/>
<path d="M53.4377 40.9963L53.7601 40.1465C53.8187 40 53.9066 40.0586 53.9652 40.0879C54.0531 40.1465 54.1117 40.1758 54.2289 40.2637C55.1374 40.8498 55.9872 40.8498 56.2509 40.8498C56.9249 40.8498 57.3645 40.4982 57.3645 40V39.9707C57.3645 39.4432 56.7198 39.2381 55.9579 39.0037L55.7821 38.9451C54.7564 38.652 53.6429 38.2125 53.6429 36.9231V36.8938C53.6429 35.663 54.6392 34.7839 56.0751 34.7839H56.2216C57.0714 34.7839 57.8626 35.0183 58.4487 35.3993C58.5073 35.4286 58.5659 35.4872 58.5366 35.5751C58.5073 35.663 58.2436 36.337 58.2143 36.4249C58.1557 36.5714 58.0092 36.4835 58.0092 36.4835C57.4817 36.1905 56.6905 35.9854 56.0165 35.9854C55.4011 35.9854 55.0202 36.3077 55.0202 36.7473V36.7766C55.0202 37.2747 55.6941 37.5092 56.456 37.7436L56.6026 37.7729C57.6282 38.0952 58.7125 38.5348 58.7125 39.7949V39.8242C58.7125 41.1722 57.7454 41.9927 56.1923 41.9927C55.4304 41.9927 54.6978 41.8755 53.9066 41.4652C53.7601 41.3773 53.6136 41.3187 53.467 41.2015C53.4377 41.1429 53.3791 41.1136 53.4377 40.9963ZM76.2949 40.9963L76.6172 40.1465C76.6758 40 76.793 40.0586 76.8223 40.0879C76.9102 40.1465 76.9688 40.1758 77.0861 40.2637C77.9945 40.8498 78.8443 40.8498 79.108 40.8498C79.782 40.8498 80.2216 40.4982 80.2216 40V39.9707C80.2216 39.4432 79.5769 39.2381 78.815 39.0037L78.6392 38.9451C77.6135 38.652 76.5 38.2125 76.5 36.9231V36.8938C76.5 35.663 77.4963 34.7839 78.9322 34.7839H79.0787C79.9286 34.7839 80.7198 35.0183 81.3058 35.3993C81.3644 35.4286 81.4231 35.4872 81.3938 35.5751C81.3644 35.663 81.1007 36.337 81.0714 36.4249C81.0128 36.5714 80.8663 36.4835 80.8663 36.4835C80.3388 36.1905 79.5476 35.9854 78.8736 35.9854C78.2582 35.9854 77.8773 36.3077 77.8773 36.7473V36.7766C77.8773 37.2747 78.5513 37.5092 79.3132 37.7436L79.4597 37.7729C80.4853 38.0952 81.5696 38.5348 81.5696 39.7949V39.8242C81.5696 41.1722 80.6025 41.9927 79.0494 41.9927C78.2875 41.9927 77.5549 41.8755 76.7637 41.4652C76.6172 41.3773 76.4707 41.3187 76.3242 41.2015C76.3242 41.1429 76.2656 41.1136 76.2949 40.9963ZM93.2326 36.9817C93.3498 37.4213 93.4377 37.8901 93.4377 38.3883C93.4377 38.8865 93.3791 39.3553 93.2326 39.7949C93.1154 40.2344 92.9102 40.6154 92.6465 40.9377C92.3828 41.2601 92.0311 41.5238 91.6502 41.6996C91.2399 41.8755 90.771 41.9634 90.2436 41.9634C89.7161 41.9634 89.2472 41.8755 88.837 41.6996C88.4267 41.5238 88.1044 41.2601 87.8406 40.9377C87.5769 40.6154 87.3718 40.2344 87.2546 39.7949C87.1373 39.3553 87.0494 38.8865 87.0494 38.3883C87.0494 37.8901 87.108 37.4213 87.2546 36.9817C87.3718 36.5421 87.5769 36.1612 87.8406 35.8388C88.1044 35.5165 88.456 35.2528 88.837 35.0769C89.2472 34.9011 89.7161 34.7839 90.2436 34.7839C90.771 34.7839 91.2399 34.8718 91.6502 35.0769C92.0604 35.2528 92.3828 35.5165 92.6465 35.8388C92.9102 36.1612 93.1154 36.5421 93.2326 36.9817ZM91.9139 38.359C91.9139 37.5971 91.7674 37.011 91.5036 36.6007C91.2399 36.1905 90.8003 35.9854 90.2436 35.9854C89.6575 35.9854 89.2472 36.1905 88.9835 36.6007C88.7197 37.011 88.5732 37.5971 88.5732 38.359C88.5732 39.1209 88.7197 39.707 88.9835 40.1465C89.2472 40.5568 89.6575 40.7619 90.2436 40.7619C90.8296 40.7619 91.2399 40.5568 91.5036 40.1465C91.7967 39.7363 91.9139 39.1209 91.9139 38.359ZM103.958 40.5568L104.28 41.4359C104.309 41.5531 104.222 41.5824 104.222 41.5824C103.723 41.7876 103.049 41.9048 102.375 41.9048C101.233 41.9048 100.383 41.5824 99.7967 40.9377C99.2106 40.293 98.9175 39.4139 98.9175 38.3297C98.9175 37.8315 98.9762 37.3626 99.1227 36.9231C99.2692 36.4835 99.4743 36.1026 99.7674 35.7802C100.06 35.4579 100.412 35.1941 100.822 35.0183C101.233 34.8425 101.731 34.7253 102.288 34.7253C102.668 34.7253 102.991 34.7546 103.255 34.7839C103.548 34.8425 103.958 34.9304 104.134 35.0183C104.163 35.0183 104.251 35.0769 104.222 35.1648C104.104 35.5165 104.016 35.7509 103.899 36.044C103.841 36.1905 103.753 36.1319 103.753 36.1319C103.313 35.9854 102.903 35.9267 102.375 35.9267C101.731 35.9267 101.233 36.1319 100.94 36.5714C100.617 36.9817 100.441 37.5385 100.441 38.3004C100.441 39.1209 100.646 39.707 100.998 40.0879C101.35 40.4689 101.848 40.6447 102.493 40.6447C102.756 40.6447 102.991 40.6154 103.196 40.5861C103.401 40.5568 103.606 40.4982 103.811 40.4103C103.782 40.4689 103.899 40.4396 103.958 40.5568ZM110.61 36.718C110.903 37.7143 110.756 38.5641 110.727 38.6227C110.727 38.7399 110.61 38.7399 110.61 38.7399H106.185C106.214 39.4139 106.361 39.8828 106.712 40.2051C107.035 40.5275 107.533 40.7326 108.236 40.7326C109.291 40.7326 109.731 40.5275 110.053 40.4103C110.053 40.4103 110.17 40.381 110.229 40.4982L110.522 41.3187C110.581 41.4652 110.522 41.4945 110.493 41.5238C110.229 41.6703 109.555 41.9634 108.266 41.9634C107.65 41.9634 107.093 41.8755 106.654 41.6996C106.214 41.5238 105.833 41.2894 105.54 40.967C105.247 40.6447 105.042 40.2637 104.896 39.8535C104.749 39.4139 104.69 38.9451 104.69 38.4469C104.69 37.9487 104.749 37.4799 104.896 37.0403C105.013 36.6007 105.218 36.2198 105.482 35.8974C105.745 35.5751 106.097 35.3114 106.507 35.1355C106.918 34.9304 107.416 34.8425 107.972 34.8425C108.441 34.8425 108.881 34.9304 109.233 35.1062C109.496 35.2234 109.789 35.4286 110.082 35.7509C110.229 35.8681 110.493 36.3077 110.61 36.718ZM106.214 37.6557H109.35C109.32 37.2454 109.233 36.8938 109.057 36.6007C108.793 36.1905 108.412 35.956 107.826 35.956C107.24 35.956 106.83 36.1905 106.566 36.6007C106.39 36.8645 106.302 37.2161 106.214 37.6557ZM75.2399 36.718C75.533 37.7143 75.3864 38.5641 75.3864 38.6227C75.3864 38.7399 75.2692 38.7399 75.2692 38.7399H70.8443C70.8736 39.4139 71.0201 39.8828 71.3718 40.2051C71.6941 40.5275 72.1923 40.7326 72.8956 40.7326C73.9505 40.7326 74.3901 40.5275 74.7124 40.4103C74.7124 40.4103 74.8297 40.381 74.8883 40.4982L75.1813 41.3187C75.2399 41.4652 75.1813 41.4945 75.152 41.5238C74.8883 41.6703 74.2143 41.9634 72.9249 41.9634C72.3095 41.9634 71.7527 41.8755 71.3132 41.6996C70.8736 41.5238 70.4927 41.2894 70.1996 40.967C69.9066 40.6447 69.7015 40.2637 69.5549 39.8535C69.4084 39.4139 69.3498 38.9451 69.3498 38.4469C69.3498 37.9487 69.4084 37.4799 69.5549 37.0403C69.6722 36.6007 69.8773 36.2198 70.141 35.8974C70.4048 35.5751 70.7564 35.3114 71.1667 35.1355C71.5769 34.9304 72.0751 34.8425 72.6319 34.8425C73.1007 34.8425 73.5403 34.9304 73.8919 35.1062C74.1557 35.2234 74.4487 35.4286 74.7417 35.7509C74.859 35.8681 75.152 36.3077 75.2399 36.718ZM70.8443 37.6557H74.0091C73.9798 37.2454 73.8919 36.8938 73.7161 36.6007C73.4524 36.1905 73.0714 35.956 72.4853 35.956C71.8993 35.956 71.489 36.1905 71.2253 36.6007C71.0201 36.8645 70.9322 37.2161 70.8443 37.6557ZM63.0788 37.4213C63.0788 37.4213 63.4304 37.4506 63.8114 37.5092V37.3333C63.8114 36.7473 63.6941 36.4542 63.4597 36.2784C63.2253 36.1026 62.8443 35.9854 62.3755 35.9854C62.3755 35.9854 61.2912 35.9854 60.4414 36.4249C60.4121 36.4542 60.3828 36.4542 60.3828 36.4542C60.3828 36.4542 60.2656 36.4835 60.2363 36.3956L59.9139 35.5458C59.8553 35.4286 59.9432 35.37 59.9432 35.37C60.3535 35.0476 61.2912 34.8718 61.2912 34.8718C61.6136 34.8132 62.141 34.7546 62.4634 34.7546C63.3425 34.7546 64.0165 34.9597 64.4853 35.37C64.9542 35.7802 65.1886 36.4249 65.1886 37.3333V41.3773C65.1886 41.3773 65.1886 41.4945 65.1007 41.5238C65.1007 41.5238 64.9249 41.5824 64.7784 41.6117C64.6319 41.641 64.1044 41.7583 63.6648 41.8169C63.2253 41.9048 62.7857 41.9341 62.3168 41.9341C61.8773 41.9341 61.4963 41.9048 61.1447 41.8169C60.793 41.7289 60.5 41.6117 60.2363 41.4359C60.0018 41.2601 59.7967 41.0257 59.6502 40.7326C59.5037 40.4689 59.4451 40.1172 59.4451 39.7363C59.4451 39.3553 59.533 39.0037 59.6795 38.7106C59.826 38.4176 60.0604 38.1832 60.3242 37.978C60.5879 37.7729 60.9103 37.6557 61.2326 37.5385C61.5842 37.4506 61.9359 37.3919 62.3168 37.3919C62.6685 37.4213 62.9029 37.4213 63.0788 37.4213ZM61.3205 40.5275C61.3205 40.5275 61.7308 40.8498 62.6099 40.7912C63.2546 40.7619 63.8114 40.6447 63.8114 40.6447V38.6227C63.8114 38.6227 63.2546 38.5348 62.6099 38.5348C61.7015 38.5348 61.3205 38.8572 61.3205 38.8572C61.0568 39.033 60.9396 39.326 60.9396 39.707C60.9396 39.9414 60.9982 40.1465 61.0861 40.2931C61.1154 40.3517 61.1447 40.4103 61.3205 40.5275ZM98.6831 35.1648C98.6538 35.2821 98.4194 35.8974 98.3608 36.1026C98.3315 36.1905 98.2729 36.2198 98.1849 36.2198C98.1849 36.2198 97.9212 36.1612 97.6868 36.1612C97.5403 36.1612 97.3058 36.1905 97.1007 36.2491C96.8956 36.3077 96.7197 36.4249 96.5439 36.5714C96.3681 36.718 96.2509 36.9524 96.163 37.2161C96.0751 37.4799 96.0164 37.9194 96.0164 38.3883V41.6703C96.0164 41.7583 95.9578 41.8169 95.8699 41.8169H94.6978C94.6099 41.8169 94.5512 41.7583 94.5512 41.6703V35.0769C94.5512 34.989 94.6099 34.9304 94.6685 34.9304H95.8113C95.8992 34.9304 95.9285 34.989 95.9285 35.0769V35.6044C96.1044 35.37 96.3974 35.1648 96.6611 35.0476C96.9249 34.9304 97.2472 34.8425 97.804 34.8718C98.097 34.9011 98.478 34.9597 98.5366 34.989C98.6538 35.0183 98.7124 35.0476 98.6831 35.1648ZM87.8113 32.1172C87.8406 32.1172 87.9285 32.1758 87.8992 32.2637L87.5476 33.2015C87.5183 33.2601 87.489 33.3187 87.3425 33.2601C87.3132 33.2601 87.2546 33.2308 87.108 33.2015C87.0201 33.1722 86.8736 33.1722 86.7564 33.1722C86.5806 33.1722 86.434 33.2015 86.2875 33.2308C86.141 33.2601 86.0238 33.348 85.9066 33.4652C85.7695 33.5989 85.66 33.7582 85.5842 33.9341C85.4084 34.4029 85.3498 34.9011 85.3498 34.9304H86.7564C86.8736 34.9304 86.9029 34.989 86.9029 35.0769L86.7271 35.9854C86.6978 36.1319 86.5806 36.1026 86.5806 36.1026H85.1154L84.1776 41.7583C84.0604 42.3443 83.9432 42.8425 83.7967 43.2528C83.6502 43.663 83.4743 43.9561 83.2106 44.2491C82.9762 44.5128 82.7124 44.718 82.3901 44.8059C82.097 44.9231 81.7161 44.9817 81.3058 44.9817C81.1007 44.9817 80.8956 44.9817 80.6612 44.9231C80.4853 44.8938 80.3974 44.8645 80.2509 44.8059C80.1923 44.7766 80.163 44.718 80.1923 44.6301C80.2216 44.5421 80.4853 43.8388 80.5146 43.7216C80.5732 43.6044 80.6612 43.663 80.6612 43.663C80.7491 43.6923 80.8077 43.7216 80.8956 43.7509C81.0128 43.7802 81.13 43.7802 81.2472 43.7802C81.4524 43.7802 81.6282 43.7509 81.7747 43.6923C81.9505 43.6337 82.0677 43.5165 82.185 43.37C82.3022 43.2235 82.3901 43.0183 82.5073 42.7546C82.5952 42.4909 82.6831 42.1099 82.771 41.6703L83.7674 36.1319H82.8003C82.6831 36.1319 82.6538 36.0733 82.6538 35.9854L82.8296 35.0769C82.8589 34.9304 82.9762 34.9597 82.9762 34.9597H83.9725L84.0311 34.6667C84.1776 33.7875 84.4707 33.1136 84.9102 32.674C85.3498 32.2344 85.9945 32 86.7857 32C87.0201 32 87.2252 32.0293 87.4011 32.0586C87.5183 32.0293 87.6648 32.0586 87.8113 32.1172ZM68.0604 41.641C68.0604 41.7289 68.0018 41.7876 67.9432 41.7876H66.7711C66.6831 41.7876 66.6538 41.7289 66.6538 41.641V32.2344C66.6538 32.1758 66.7124 32.0879 66.7711 32.0879H67.9432C68.0311 32.0879 68.0604 32.1465 68.0604 32.2344V41.641Z" fill="white"/>
</svg>
