<svg width="241" height="80" viewBox="0 0 241 80" fill="none" xmlns="http://www.w3.org/2000/svg">
<g clip-path="url(#clip0_589_3527)">
<path d="M57.5025 32.5781H34.6411C34.205 32.5781 33.8514 32.9317 33.8514 33.3678V36.0294C33.8514 36.4655 34.205 36.8191 34.6411 36.8191H57.5025C57.9387 36.8191 58.2922 36.4655 58.2922 36.0294V33.3678C58.2922 32.9317 57.9387 32.5781 57.5025 32.5781Z" fill="#52BD94"/>
<path d="M42.3802 43.1797H19.5188C19.0827 43.1797 18.7291 43.5332 18.7291 43.9693V46.631C18.7291 47.0671 19.0827 47.4207 19.5188 47.4207H42.3802C42.8163 47.4207 43.1699 47.0671 43.1699 46.631V43.9693C43.1699 43.5332 42.8163 43.1797 42.3802 43.1797Z" fill="#52BD94"/>
<path fill-rule="evenodd" clip-rule="evenodd" d="M21.6614 35.4809C21.862 35.5327 22.0748 35.5039 22.2544 35.4007C22.434 35.2974 22.566 35.128 22.6222 34.9287C23.8881 30.9662 26.5888 27.6196 30.1944 25.5453C33.8001 23.471 38.0507 22.8186 42.1125 23.7161C42.309 23.7566 42.5136 23.7202 42.6841 23.6144C42.8547 23.5085 42.9781 23.3414 43.0291 23.1473L43.7194 20.5712C43.7464 20.4678 43.7522 20.36 43.7364 20.2543C43.7207 20.1486 43.6837 20.0471 43.6277 19.9561C43.5718 19.865 43.4979 19.7863 43.4107 19.7245C43.3235 19.6627 43.2247 19.6192 43.1202 19.5966C37.9874 18.4412 32.6076 19.2625 28.0533 21.8969C23.499 24.5312 20.1047 28.785 18.5469 33.8104C18.5176 33.9112 18.5087 34.0169 18.5207 34.1212C18.5326 34.2254 18.5653 34.3263 18.6167 34.4178C18.6681 34.5093 18.7373 34.5897 18.8201 34.6542C18.903 34.7187 18.9978 34.766 19.0992 34.7934L21.6614 35.4809Z" fill="#52BD94"/>
<path fill-rule="evenodd" clip-rule="evenodd" d="M55.3654 44.5038C55.1633 44.4495 54.948 44.477 54.7661 44.5804C54.5841 44.6837 54.4503 44.8547 54.3935 45.0561C53.1304 49.0211 50.4309 52.3708 46.8249 54.4479C43.219 56.5249 38.9669 57.1793 34.9033 56.2825C34.7067 56.2413 34.5018 56.2774 34.3311 56.3833C34.1604 56.4892 34.037 56.6568 33.9866 56.8512L33.3102 59.4135C33.2828 59.5171 33.2766 59.6252 33.2922 59.7312C33.3077 59.8372 33.3446 59.939 33.4006 60.0304C33.4566 60.1218 33.5306 60.2008 33.618 60.2628C33.7055 60.3247 33.8046 60.3683 33.9093 60.3909C39.0424 61.5435 44.4213 60.7206 48.975 58.0861C53.5287 55.4516 56.9232 51.1987 58.4826 46.1743C58.5123 46.0737 58.5215 45.9681 58.5097 45.8639C58.4979 45.7597 58.4652 45.6589 58.4137 45.5675C58.3622 45.4761 58.2929 45.3959 58.2099 45.3318C58.1269 45.2677 58.0319 45.2208 57.9304 45.1941L55.3654 44.5038Z" fill="#52BD94"/>
<path d="M50.5943 27.923C51.8783 27.923 52.9191 26.8822 52.9191 25.5982C52.9191 24.3143 51.8783 23.2734 50.5943 23.2734C49.3104 23.2734 48.2695 24.3143 48.2695 25.5982C48.2695 26.8822 49.3104 27.923 50.5943 27.923Z" fill="#52BD94"/>
<path d="M26.4325 56.7199C27.7164 56.7199 28.7573 55.6791 28.7573 54.3951C28.7573 53.1112 27.7164 52.0703 26.4325 52.0703C25.1485 52.0703 24.1077 53.1112 24.1077 54.3951C24.1077 55.6791 25.1485 56.7199 26.4325 56.7199Z" fill="#52BD94"/>
<path fill-rule="evenodd" clip-rule="evenodd" d="M115.228 35.7847C116.075 34.8538 117.111 34.1135 118.266 33.6128C119.421 33.112 120.67 32.8623 121.929 32.8801C124.375 32.8801 126.28 33.6366 127.484 35.0889V33.8851C127.492 33.7187 127.561 33.5612 127.678 33.4429C127.796 33.3246 127.953 33.2539 128.119 33.2445H131.344C131.51 33.2545 131.667 33.3254 131.784 33.4435C131.901 33.5617 131.97 33.7189 131.979 33.8851V51.7905C132.079 54.3171 131.298 56.8 129.77 58.8146C128.031 60.9295 125.391 62.0008 121.923 62.0008C117.102 62.0008 113.298 58.9499 112.671 54.5929C112.656 54.4358 112.696 54.2782 112.785 54.1476C112.873 54.017 113.005 53.9216 113.157 53.8778L116.307 53.1379C116.324 53.1365 116.34 53.1365 116.357 53.1379C116.439 53.1254 116.523 53.1292 116.604 53.1493C116.684 53.1694 116.76 53.2052 116.827 53.2547C116.894 53.3043 116.95 53.3665 116.992 53.4379C117.035 53.5093 117.063 53.5885 117.075 53.6707C117.215 54.8496 117.791 55.9335 118.689 56.7102C119.587 57.487 120.742 57.9007 121.929 57.8703C125.695 57.8703 127.451 55.9376 127.451 51.8982V50.3299C126.76 51.1043 125.907 51.7174 124.953 52.1258C123.998 52.5342 122.966 52.7279 121.929 52.6933C116.57 52.6933 112.682 48.5324 112.682 42.806C112.634 40.2315 113.541 37.7305 115.228 35.7847ZM177.763 32.6343H177.931C183.693 32.7117 187.263 36.7235 187.263 43.1429C187.263 43.4832 187.244 43.8233 187.208 44.1617C187.19 44.3133 187.117 44.453 187.003 44.5547C186.889 44.6564 186.742 44.713 186.59 44.7139H172.892C172.933 46.0966 173.517 47.4077 174.516 48.3639C175.516 49.3201 176.851 49.8448 178.235 49.8246C179.318 49.8923 180.392 49.5909 181.282 48.9696C182.172 48.3484 182.826 47.4439 183.136 46.4037C183.193 46.2515 183.307 46.1274 183.453 46.0569C183.6 45.9865 183.768 45.9752 183.922 46.0254L186.648 46.9918C186.726 47.0175 186.799 47.0596 186.86 47.1152C186.922 47.1709 186.97 47.2389 187.004 47.3148C187.041 47.3881 187.063 47.4682 187.069 47.5503C187.075 47.6323 187.064 47.7147 187.037 47.7925C186.419 49.6238 185.229 51.208 183.642 52.3116C182.055 53.4152 180.156 53.9797 178.224 53.922C176.936 53.9345 175.659 53.6916 174.466 53.2072C173.273 52.7229 172.188 52.0067 171.274 51.1002C170.276 50.0509 169.498 48.8129 168.986 47.4587C168.473 46.1045 168.236 44.6616 168.289 43.2147C168.289 36.5882 173.105 32.6205 177.757 32.6205L177.763 32.6343ZM100.266 32.6343C106.13 32.6343 109.775 36.6627 109.775 43.1456C109.774 43.486 109.756 43.8261 109.719 44.1645C109.703 44.3168 109.631 44.4575 109.516 44.5596C109.402 44.6616 109.254 44.7176 109.101 44.7167H95.4033C95.4417 46.1072 96.0284 47.4261 97.0355 48.3856C98.0426 49.3451 99.3884 49.8674 100.779 49.8384C101.863 49.9071 102.937 49.6061 103.828 48.9847C104.718 48.3633 105.371 47.4582 105.68 46.4175C105.736 46.264 105.849 46.1385 105.996 46.0678C106.143 45.9971 106.312 45.9868 106.467 46.0392L109.203 47.0028C109.282 47.0282 109.355 47.0702 109.416 47.1259C109.477 47.1816 109.526 47.2498 109.559 47.3259C109.591 47.4016 109.607 47.4827 109.607 47.5647C109.607 47.6467 109.591 47.7278 109.559 47.8035C108.941 49.6339 107.752 51.2175 106.166 52.321C104.581 53.4245 102.683 53.9896 100.751 53.933C99.4618 53.947 98.1822 53.7047 96.9869 53.2203C95.7916 52.7359 94.7043 52.0191 93.7881 51.1113C92.7922 50.0607 92.0154 48.8224 91.5029 47.4686C90.9905 46.1147 90.7527 44.6724 90.8034 43.2257C90.8034 36.5992 95.6187 32.6316 100.274 32.6316L100.266 32.6343ZM79.5191 32.6343C82.1503 32.6343 84.2791 33.2722 85.8556 34.5339C86.9203 35.3831 87.7099 36.5282 88.1252 37.8251C88.1383 37.8802 88.1403 37.9374 88.1311 37.9933C88.1219 38.0492 88.1016 38.1027 88.0716 38.1508C88.0415 38.1988 88.0023 38.2404 87.956 38.2731C87.9098 38.3058 87.8575 38.3291 87.8022 38.3414L84.5359 39.421C84.3909 39.4762 84.2308 39.4762 84.0858 39.421C84.0242 39.3925 83.9694 39.3512 83.9251 39.2997C83.8808 39.2483 83.848 39.188 83.829 39.1228C83.5529 38.0653 82.6031 36.29 79.5135 36.29C77.3572 36.29 76.065 37.5269 76.065 38.7252C76.065 39.5204 76.4764 40.5447 78.4202 40.9147L82.0095 41.5884C86.0213 42.3974 88.3185 44.5924 88.3185 47.6489V47.5964C88.3185 50.6336 85.3973 53.8778 79.9691 53.8778C73.6739 53.8778 71.2 50.3161 70.7445 48.2149C70.7294 48.1052 70.755 47.9937 70.8166 47.9016C70.8782 47.8095 70.9714 47.7432 71.0785 47.7152L74.447 46.666C74.5073 46.6549 74.569 46.6549 74.6292 46.666C74.7254 46.6642 74.8204 46.6871 74.9053 46.7322C74.9664 46.7616 75.0204 46.8041 75.0633 46.8565C75.1062 46.909 75.1371 46.9702 75.1538 47.036C75.579 49.057 77.4041 50.2609 80.0298 50.2609C82.4734 50.2609 83.5861 48.9825 83.5861 47.8229C83.5861 46.6632 82.5949 45.8101 80.8913 45.4677L77.1142 44.7332C73.5911 44.0678 71.3961 41.8783 71.3961 39.0289C71.3961 35.5611 75.1207 32.6343 79.5191 32.6343ZM218.275 27.0156C218.447 27.0262 218.608 27.1018 218.725 27.227C218.843 27.3522 218.908 27.5176 218.908 27.6893V33.2114H222.45C222.62 33.2239 222.779 33.3003 222.896 33.4253C223.012 33.5502 223.077 33.7145 223.077 33.8851V36.8284C223.078 36.9959 223.012 37.1568 222.895 37.2763C222.777 37.3957 222.617 37.464 222.45 37.4662H218.908V47.2927C218.908 48.9217 219.554 49.5954 221.216 49.5954C221.595 49.5891 221.973 49.5577 222.348 49.5016C222.439 49.4861 222.532 49.4907 222.62 49.515C222.709 49.5393 222.791 49.5828 222.861 49.6424C222.928 49.7045 222.982 49.7797 223.019 49.8632C223.056 49.9468 223.076 50.037 223.077 50.1283V52.8894C223.078 53.0268 223.034 53.1608 222.953 53.2713C222.871 53.3818 222.756 53.4629 222.624 53.5023C221.816 53.729 220.979 53.8378 220.139 53.8254C216.588 53.8254 214.388 51.542 214.388 47.8587V37.5076H211.323C211.157 37.4976 211.001 37.4266 210.884 37.3084C210.768 37.1902 210.699 37.033 210.691 36.867V33.9182C210.69 33.7463 210.755 33.5806 210.872 33.4552C210.99 33.3299 211.151 33.2544 211.323 33.2445H212.118C213.082 33.2445 214.705 32.9077 214.705 30.6105V27.6893C214.704 27.5174 214.769 27.3517 214.887 27.2263C215.005 27.1009 215.166 27.0255 215.338 27.0156H218.275ZM151.789 35.9255C152.482 34.8671 153.438 34.0072 154.563 33.4301C155.689 32.8531 156.945 32.5788 158.209 32.6343C161.71 32.6343 165.247 35.1 165.247 40.4868V52.9556C165.238 53.1218 165.169 53.279 165.052 53.3972C164.934 53.5154 164.778 53.5862 164.612 53.5962H161.384C161.218 53.5856 161.062 53.5144 160.946 53.3963C160.829 53.2782 160.76 53.1214 160.752 52.9556V40.8871C160.752 39.3603 160.274 36.787 157.041 36.787C154.677 36.787 152.999 38.6451 152.999 41.3399V52.9556C152.991 53.1216 152.922 53.2788 152.805 53.397C152.689 53.5152 152.532 53.5862 152.366 53.5962H149.097C148.931 53.5862 148.775 53.5154 148.658 53.3972C148.54 53.279 148.471 53.1218 148.462 52.9556V40.8871C148.468 39.3603 147.993 36.7759 144.757 36.7759C142.3 36.7759 140.643 38.6203 140.643 41.3675V52.9556C140.635 53.1214 140.565 53.2782 140.449 53.3963C140.332 53.5144 140.176 53.5856 140.011 53.5962H136.786C136.621 53.5849 136.466 53.5133 136.351 53.3952C136.235 53.2771 136.167 53.1207 136.159 52.9556V33.8437C136.167 33.6788 136.236 33.5227 136.351 33.4047C136.467 33.2867 136.621 33.215 136.786 33.2031H139.889C140.055 33.2137 140.211 33.2849 140.327 33.403C140.444 33.5211 140.513 33.6779 140.522 33.8437V34.995C141.213 34.2388 142.056 33.6375 142.997 33.2306C143.937 32.8237 144.953 32.6205 145.977 32.6343C147.154 32.5999 148.318 32.8884 149.343 33.4686C150.367 34.0488 151.214 34.8985 151.789 35.9255ZM200.966 32.6343C201.999 32.5902 203.027 32.7813 203.975 33.1931C204.922 33.6049 205.764 34.2268 206.436 35.0116C207.69 36.6618 208.327 38.698 208.239 40.7684V52.9556C208.232 53.1204 208.164 53.2769 208.049 53.395C207.934 53.5132 207.78 53.5848 207.615 53.5962H204.349C204.183 53.5856 204.026 53.5146 203.909 53.3965C203.792 53.2785 203.723 53.1216 203.714 52.9556V41.42C203.714 38.4022 202.294 36.867 199.6 36.867C199.013 36.8481 198.43 36.9675 197.898 37.2155C197.366 37.4634 196.9 37.8331 196.538 38.2945C195.807 39.3453 195.438 40.605 195.486 41.8838V52.9556C195.477 53.1214 195.408 53.2782 195.292 53.3963C195.175 53.5144 195.019 53.5856 194.853 53.5962H191.593C191.427 53.5856 191.271 53.5144 191.154 53.3963C191.038 53.2782 190.969 53.1214 190.96 52.9556V33.8299C190.967 33.6633 191.035 33.505 191.152 33.3861C191.269 33.2672 191.426 33.196 191.593 33.1866H194.779C194.943 33.1972 195.098 33.2682 195.214 33.3858C195.33 33.5035 195.398 33.6596 195.406 33.8244V35.1717C196.081 34.3567 196.932 33.7051 197.895 33.2656C198.858 32.8262 199.908 32.6104 200.966 32.6343ZM122.489 36.9084C119.308 36.9084 117.29 39.1697 117.29 42.806C117.29 46.4423 119.284 48.7009 122.489 48.7009C125.546 48.7009 127.605 46.3291 127.605 42.806C127.605 39.2829 125.546 36.9084 122.489 36.9084ZM100.299 36.7262C99.1251 36.706 97.9861 37.1243 97.1047 37.8995C96.2233 38.6747 95.6629 39.7509 95.5331 40.9175H105.114C104.885 38.3304 103.046 36.7262 100.299 36.7262ZM177.815 36.7262C176.642 36.708 175.505 37.1272 174.625 37.9021C173.745 38.6771 173.185 39.7521 173.055 40.9175H182.639C182.401 38.3304 180.573 36.7262 177.812 36.7262H177.815Z" fill="#52BD94"/>
<path d="M76.1478 19.7057V26.1279H74.3283V19.7057H71.813V18.1484H78.6908V19.7057H76.1478Z" fill="#52BD94"/>
<path d="M90.047 26.1555H88.1557L86.4217 20.2744L84.6574 26.1555H82.8048L80.4579 18.1484H82.3906L83.8788 23.9163L85.5575 18.1484H87.4903L89.1469 23.9163L90.5882 18.1484H92.3663L90.047 26.1555Z" fill="#52BD94"/>
<path d="M94.8705 26.1279V18.1484H96.6624V26.1279H94.8705Z" fill="#52BD94"/>
<path d="M99.8873 26.1279V18.1484H101.707V24.5568H104.821V26.1279H99.8873Z" fill="#52BD94"/>
<path d="M107.533 26.1279V18.1484H109.338V26.1279H107.533Z" fill="#52BD94"/>
<path d="M116.095 26.285C113.886 26.285 112.119 24.7001 112.119 22.1572C112.119 19.6143 113.911 18.0156 116.108 18.0156C118.306 18.0156 120.082 19.6005 120.082 22.1572C120.082 24.7139 118.304 26.285 116.095 26.285ZM116.095 19.4762C114.714 19.4762 113.911 20.6138 113.911 22.1434C113.911 23.673 114.739 24.8244 116.095 24.8244C117.45 24.8244 118.248 23.6592 118.248 22.1572C118.248 20.6552 117.442 19.4762 116.108 19.4762H116.095Z" fill="#52BD94"/>
</g>
<defs>
<clipPath id="clip0_589_3527">
<rect width="204.577" height="44" fill="white" transform="translate(18.5 18)"/>
</clipPath>
</defs>
</svg>
