<svg width="79" height="80" viewBox="0 0 79 80" fill="none" xmlns="http://www.w3.org/2000/svg">
<g clip-path="url(#clip0_589_3507)">
<path d="M1.27611 42.3404C0.927851 44.2807 -0.564686 50.0021 -8.47513 50.0021C-13.9975 50.0021 -16.6343 46.42 -16.6343 41.3453C-16.6343 35.2259 -12.8035 30.1016 -6.33583 30.1016C-2.10697 30.1016 1.67412 31.9424 1.77362 37.614H-3.74876C-3.69901 35.823 -4.54478 34.8279 -6.33583 34.8279C-9.56966 34.8279 -10.7637 38.5593 -10.7637 41.2458C-10.7637 42.8379 -10.3657 45.2259 -7.67911 45.2259C-5.83832 45.2259 -4.79354 43.9822 -4.44528 42.2906L1.27611 42.3404Z" fill="#004B8D"/>
<path d="M4.65923 30.5938H10.5299L9.13684 37.1609H14.4602L15.8533 30.5938H21.7239L17.7438 49.549H11.9229L13.4652 42.0365H8.14181L6.54978 49.549H0.728882L4.65923 30.5938Z" fill="#004B8D"/>
<path d="M23.2662 30.5938H38.9378L37.9428 35.4694H28.092L27.5945 37.8077H36.7488L35.8035 42.335H26.6493L26.1517 44.6734H36.2015L35.2065 49.549H19.2861L23.2662 30.5938Z" fill="#004B8D"/>
<path d="M42.9677 39.4992L38.5896 30.5938H44.9577L46.7985 35.5191L50.5796 30.5938H57.495L49.5846 39.4992L54.2115 49.549H47.6443L45.5547 44.2753L41.1269 49.549H33.9627L42.9677 39.4992Z" fill="#004B8D"/>
<path d="M58.2412 31.4428C58.2412 30.7463 58.7388 30.199 59.4353 30.199C60.082 30.199 60.6293 30.7463 60.6293 31.4428C60.6293 32.1393 60.1318 32.6866 59.4353 32.6866C58.7885 32.6866 58.2412 32.1393 58.2412 31.4428ZM57.9925 31.4428C57.9925 32.2886 58.6393 32.8856 59.4353 32.8856C60.2313 32.8856 60.8781 32.2886 60.8781 31.4428C60.8781 30.6468 60.2313 30 59.4353 30C58.6393 30 57.9925 30.6468 57.9925 31.4428ZM58.888 32.2886H59.1368V31.592H59.3855L59.8333 32.3383H60.1318L59.6343 31.592C59.883 31.592 60.082 31.4428 60.082 31.1443C60.082 30.796 59.883 30.6468 59.485 30.6468H58.888V32.2886ZM59.1368 30.8458H59.485C59.684 30.8458 59.8333 30.8955 59.8333 31.0945C59.8333 31.3433 59.6343 31.393 59.3855 31.393H59.1368V30.8458Z" fill="#004B8D"/>
</g>
<defs>
<clipPath id="clip0_589_3507">
<rect width="160" height="80" fill="white" transform="translate(-81.5)"/>
</clipPath>
</defs>
</svg>
