<svg width="161" height="80" viewBox="0 0 161 80" fill="none" xmlns="http://www.w3.org/2000/svg">
<path d="M34.3463 17.1562V62.8212H80.9942L126.654 17.1614H34.3463V17.1562Z" fill="url(#paint0_linear_589_3523)"/>
<path d="M93.4325 58.1515V61.5572H93.9465V60.0793H94.5247L95.4565 61.5572H96.0349L95.0388 60.0793C95.5365 60.0176 95.9384 59.7282 95.9384 59.1154C95.9384 58.444 95.5276 58.1515 94.7176 58.1515H93.4325ZM93.9465 58.6013H94.6533C95.0009 58.6013 95.3923 58.6579 95.3923 59.0832C95.3923 59.6149 94.9959 59.6617 94.5569 59.6617H93.9465V58.6013ZM94.5891 56.8984C92.9585 56.8984 91.5688 58.1549 91.5688 59.8543C91.5688 61.5662 92.9584 62.8424 94.5891 62.8424C96.1971 62.8424 97.545 61.5664 97.545 59.8543C97.545 58.1549 96.1971 56.8984 94.5891 56.8984ZM94.5891 57.3804C95.9194 57.3804 96.9666 58.4551 96.9666 59.8543C96.9666 61.2775 95.9194 62.3283 94.5891 62.3283C93.236 62.3283 92.1473 61.2775 92.1473 59.8543C92.1473 58.4551 93.236 57.3804 94.5891 57.3804Z" fill="#1870C5"/>
<path fill-rule="evenodd" clip-rule="evenodd" d="M89.6574 39.0031H87.6566V31.6858H89.6574C92.3285 31.6858 94.4547 32.5659 94.4547 35.2976C94.4547 38.1189 92.3285 39.0031 89.6574 39.0031ZM68.1229 44.2343C67.0639 44.2343 66.0707 44.041 65.2122 43.7181L68.0941 34.6293H68.1558L70.9781 43.7428C70.1278 44.0472 69.1603 44.2343 68.126 44.2343H68.1229ZM89.1268 25.741H80.0411V47.3454L72.1039 25.741H64.2365L57.4549 43.8035C56.7383 39.2509 52.0222 37.6747 48.3147 36.4995C45.8708 35.713 43.2696 34.5574 43.2933 33.2773C43.3138 32.2307 44.6905 31.2601 47.4058 31.4051C49.2359 31.4976 50.8501 31.6457 54.0548 33.1951L57.2112 27.6966C54.2872 26.2027 50.2353 25.265 46.9205 25.2578H46.9C43.0331 25.2578 39.8109 26.5183 37.8122 28.5818C36.4232 30.0253 35.6716 31.8513 35.6377 33.8839C35.5863 36.6682 36.6114 38.6443 38.7571 40.2245C40.5728 41.5549 42.8892 42.4114 44.9352 43.0529C47.4593 43.8312 49.5197 44.5108 49.496 45.9595C49.4755 46.4869 49.2791 46.9815 48.8977 47.3722C48.2695 48.025 47.304 48.2667 45.9685 48.2965C43.394 48.3479 41.4848 47.9469 38.4435 46.1497L35.6377 51.7253C38.6697 53.4516 42.2589 54.4612 45.9222 54.4612H46.3962C49.5834 54.3995 52.1579 53.4896 54.2152 51.8364L54.5483 51.5454L53.6395 53.9883H61.8903L63.2762 49.7739C64.7259 50.2643 66.3771 50.5399 68.125 50.5399C69.8307 50.5399 71.4397 50.2828 72.8637 49.814L74.1961 53.9883H87.6586V45.2593H90.596C97.6902 45.2593 101.891 41.6485 101.891 35.5886C101.891 28.844 97.8116 25.7503 89.1258 25.7503" fill="white"/>
<defs>
<linearGradient id="paint0_linear_589_3523" x1="80.4678" y1="17.1809" x2="80.4678" y2="62.8222" gradientUnits="userSpaceOnUse">
<stop stop-color="#00B8F1"/>
<stop offset="0.2199" stop-color="#06A5E5"/>
<stop offset="0.7943" stop-color="#1870C5"/>
<stop offset="1" stop-color="#1D61BC"/>
</linearGradient>
</defs>
</svg>
