<svg width="161" height="80" viewBox="0 0 161 80" fill="none" xmlns="http://www.w3.org/2000/svg">
<g clip-path="url(#clip0_589_3561)">
<path d="M48.6338 30.0011C48.6114 29.8438 48.4765 29.7539 48.3642 29.7539C48.2518 29.7539 46.0272 29.7089 46.0272 29.7089C46.0272 29.7089 44.1621 27.9113 43.9823 27.709C43.8026 27.5292 43.443 27.5742 43.3082 27.6191C43.3082 27.6191 42.9487 27.7315 42.3644 27.9113C42.2746 27.5967 42.1173 27.2146 41.915 26.8102C41.2634 25.5518 40.2746 24.8777 39.1061 24.8777C39.0163 24.8777 38.9488 24.8777 38.859 24.9001C38.814 24.8552 38.7916 24.8103 38.7466 24.7878C38.2298 24.2485 37.5781 23.9788 36.7916 24.0013C35.2861 24.0462 33.7805 25.1473 32.5446 27.0798C31.6907 28.4506 31.0391 30.1583 30.8368 31.4841C29.1066 32.0234 27.8931 32.4054 27.8482 32.4054C26.9718 32.6751 26.9493 32.6976 26.837 33.529C26.792 34.1582 24.5 51.8878 24.5 51.8878L43.7352 55.2135L52.0719 53.1462C52.0494 53.1462 48.6563 30.1583 48.6338 30.0011ZM41.3982 28.2258C40.9488 28.3607 40.4544 28.518 39.9151 28.6977C39.9151 27.9337 39.8027 26.8551 39.4657 25.9563C40.6117 26.136 41.1735 27.4394 41.3982 28.2258ZM38.9039 28.9899C37.8927 29.3045 36.7916 29.6415 35.6906 29.9786C36.0051 28.7876 36.5894 27.6191 37.3085 26.8326C37.5781 26.5405 37.9601 26.2259 38.3871 26.0462C38.8365 26.9225 38.9264 28.1584 38.9039 28.9899ZM36.8366 25.0125C37.1961 25.0125 37.4882 25.0799 37.7354 25.2597C37.3309 25.4619 36.9265 25.7765 36.5669 26.181C35.6007 27.2146 34.8591 28.8101 34.567 30.3606C33.6457 30.6527 32.7469 30.9224 31.9379 31.1695C32.4772 28.7202 34.5221 25.0799 36.8366 25.0125Z" fill="#95BF47"/>
<path d="M48.3643 29.751C48.2519 29.751 46.0273 29.706 46.0273 29.706C46.0273 29.706 44.1622 27.9083 43.9824 27.7061C43.915 27.6387 43.8251 27.5938 43.7352 27.5938V55.2106L52.072 53.1433C52.072 53.1433 48.6788 30.1554 48.6564 29.9981C48.6114 29.8408 48.4766 29.751 48.3643 29.751Z" fill="#5E8E3E"/>
<path d="M39.1062 34.0444L38.1399 37.6622C38.1399 37.6622 37.0613 37.1678 35.7805 37.2577C33.8929 37.3701 33.8929 38.561 33.8929 38.8532C34.0053 40.4711 38.2523 40.8306 38.4995 44.6282C38.6792 47.6168 36.9265 49.6617 34.3648 49.819C31.3087 49.9763 29.6234 48.1786 29.6234 48.1786L30.2751 45.4147C30.2751 45.4147 31.9829 46.6955 33.3311 46.6057C34.2075 46.5607 34.5446 45.8192 34.4996 45.3248C34.3648 43.2125 30.9043 43.3474 30.6795 39.8644C30.4998 36.9431 32.4098 33.9994 36.6344 33.7298C38.2747 33.6174 39.1062 34.0444 39.1062 34.0444Z" fill="white"/>
<path d="M63.3523 41.7496C62.3861 41.2328 61.8917 40.7833 61.8917 40.1766C61.8917 39.4126 62.5883 38.9182 63.6669 38.9182C64.9253 38.9182 66.0488 39.4351 66.0488 39.4351L66.9252 36.7386C66.9252 36.7386 66.1163 36.1094 63.7343 36.1094C60.4086 36.1094 58.0941 38.0194 58.0941 40.6935C58.0941 42.2215 59.1727 43.3675 60.6109 44.1989C61.7794 44.8506 62.1838 45.3225 62.1838 46.0191C62.1838 46.7382 61.5996 47.3224 60.521 47.3224C58.9255 47.3224 57.3975 46.491 57.3975 46.491L56.4537 49.1875C56.4537 49.1875 57.8469 50.1313 60.2064 50.1313C63.622 50.1313 66.0938 48.4459 66.0938 45.4124C66.0713 43.772 64.8354 42.6035 63.3523 41.7496Z" fill="black"/>
<path d="M76.9697 36.0699C75.2844 36.0699 73.9586 36.8789 72.9474 38.0923L72.9025 38.0698L74.3631 30.4297H70.5655L66.8578 49.8896H70.6554L71.9138 43.2382C72.4081 40.7214 73.7114 39.1709 74.9249 39.1709C75.7788 39.1709 76.1158 39.7551 76.1158 40.5866C76.1158 41.1034 76.0709 41.7551 75.9585 42.2719L74.5204 49.8896H78.318L79.8011 42.0247C79.9584 41.1933 80.0707 40.2046 80.0707 39.5304C80.0932 37.3732 78.9697 36.0699 76.9697 36.0699Z" fill="black"/>
<path d="M88.6997 36.0625C84.1156 36.0625 81.082 40.1972 81.082 44.8037C81.082 47.7474 82.9022 50.1293 86.3178 50.1293C90.812 50.1293 93.8456 46.107 93.8456 41.3881C93.868 38.6691 92.2726 36.0625 88.6997 36.0625ZM86.8346 47.2306C85.5313 47.2306 84.992 46.1295 84.992 44.7363C84.992 42.5566 86.1155 39.0062 88.1829 39.0062C89.5311 39.0062 89.9805 40.1747 89.9805 41.2982C89.9805 43.6352 88.8345 47.2306 86.8346 47.2306Z" fill="black"/>
<path d="M103.598 36.0625C101.036 36.0625 99.5756 38.3321 99.5756 38.3321H99.5306L99.7554 36.2872H96.3847C96.2274 37.6579 95.9128 39.7702 95.6207 41.3432L92.9691 55.2752H96.7667L97.8228 49.635H97.9127C97.9127 49.635 98.6992 50.1293 100.137 50.1293C104.609 50.1293 107.53 45.5453 107.53 40.9162C107.53 38.3545 106.384 36.0625 103.598 36.0625ZM99.9576 47.2755C98.9689 47.2755 98.3846 46.7137 98.3846 46.7137L99.0138 43.1633C99.4632 40.7814 100.699 39.2084 102.025 39.2084C103.193 39.2084 103.553 40.287 103.553 41.2982C103.553 43.7701 102.092 47.2755 99.9576 47.2755Z" fill="black"/>
<path d="M112.968 30.6094C111.755 30.6094 110.789 31.5756 110.789 32.8115C110.789 33.9351 111.508 34.7216 112.586 34.7216H112.631C113.822 34.7216 114.833 33.9126 114.856 32.5194C114.856 31.4183 114.114 30.6094 112.968 30.6094Z" fill="black"/>
<path d="M107.643 49.8654H111.44L114.024 36.3828H110.204L107.643 49.8654Z" fill="black"/>
<path d="M123.709 36.3582H121.058L121.193 35.7291C121.417 34.4257 122.181 33.2797 123.462 33.2797C124.136 33.2797 124.676 33.482 124.676 33.482L125.417 30.4933C125.417 30.4933 124.766 30.1562 123.35 30.1562C122.002 30.1562 120.653 30.5383 119.62 31.4146C118.316 32.5157 117.71 34.1111 117.418 35.7291L117.305 36.3582H115.53L114.968 39.2345H116.743L114.721 49.8858H118.519L120.541 39.2345H123.17L123.709 36.3582Z" fill="black"/>
<path d="M132.878 36.3828C132.878 36.3828 130.496 42.3826 129.44 45.6633H129.395C129.327 44.6072 128.451 36.3828 128.451 36.3828H124.451L126.743 48.7643C126.788 49.034 126.765 49.2137 126.653 49.3935C126.204 50.2474 125.462 51.0788 124.586 51.6856C123.867 52.2024 123.058 52.5395 122.429 52.7642L123.485 56C124.249 55.8427 125.867 55.191 127.215 53.9327C128.945 52.3147 130.563 49.798 132.203 46.3824L136.855 36.3828H132.878Z" fill="black"/>
</g>
<defs>
<clipPath id="clip0_589_3561">
<rect width="160" height="80" fill="white" transform="translate(0.5)"/>
</clipPath>
</defs>
</svg>
