<svg width="241" height="80" viewBox="0 0 241 80" fill="none" xmlns="http://www.w3.org/2000/svg">
<g clip-path="url(#clip0_589_3542)">
<path fill-rule="evenodd" clip-rule="evenodd" d="M65.236 33.8595C63.0331 33.8528 60.8976 34.6195 59.202 36.0259V34.0776H53.6914V55.5384H59.4201V41.8273C60.0362 41.0257 60.8229 40.371 61.7231 39.9108C62.6234 39.4507 63.6147 39.1964 64.6254 39.1665C65.407 39.1239 66.189 39.2426 66.9227 39.5155V34.0049C66.366 33.9054 65.8015 33.8567 65.236 33.8595Z" fill="#293E40"/>
<path fill-rule="evenodd" clip-rule="evenodd" d="M15.2771 48.9947C16.9044 50.3667 18.9646 51.1187 21.093 51.1175C22.6343 51.1175 23.8265 50.3614 23.8265 49.3C23.8701 46.0722 13.5178 47.2645 13.5178 40.3144C13.5178 36.1996 17.4872 33.6406 21.7183 33.6406C24.3011 33.6377 26.8283 34.3908 28.9882 35.8071L26.2547 39.9945C25.0684 39.1027 23.6376 38.5953 22.1544 38.5406C20.5696 38.5406 19.2465 39.1658 19.2465 40.2708C19.2465 43.0624 29.5988 41.9574 29.5988 49.3873C29.5988 53.4584 25.5858 55.9884 21.093 55.9884C17.9953 55.9404 14.9903 54.9235 12.5 53.0804L15.2771 48.9947Z" fill="#293E40"/>
<path fill-rule="evenodd" clip-rule="evenodd" d="M51.2486 44.6037C51.2486 38.6278 47.0612 33.6406 41.1434 33.6406C34.8041 33.6406 30.7475 38.8604 30.7475 44.8218C30.6811 46.3083 30.9255 47.7924 31.4651 49.1791C32.0046 50.5659 32.8274 51.8249 33.881 52.8758C34.9346 53.9266 36.1957 54.7461 37.5839 55.2821C38.9721 55.818 40.4568 56.0586 41.9431 55.9883C43.5859 56.0009 45.2126 55.6652 46.7163 55.0036C48.2199 54.342 49.5664 53.3694 50.667 52.1498L47.3956 48.8493C46.712 49.604 45.8833 50.2132 44.9589 50.6404C44.0346 51.0676 43.0336 51.304 42.0158 51.3356C40.579 51.3939 39.1747 50.8985 38.0925 49.9516C37.0103 49.0047 36.3328 47.6785 36.1999 46.2467H51.1032C51.1988 45.7042 51.2474 45.1545 51.2486 44.6037ZM36.5634 42.0446C36.7697 40.9822 37.3399 40.025 38.1758 39.3377C39.0118 38.6503 40.0612 38.2759 41.1434 38.2788C42.1877 38.2789 43.1955 38.6625 43.9755 39.3567C44.7555 40.051 45.2534 41.0075 45.3745 42.0446H36.5634Z" fill="#293E40"/>
<path fill-rule="evenodd" clip-rule="evenodd" d="M80.5755 47.1785L86.4351 34.0781H92.3964L82.5529 55.5389H78.5981L68.7692 34.0781H74.716L80.5755 47.1785Z" fill="#293E40"/>
<path fill-rule="evenodd" clip-rule="evenodd" d="M97.1945 24.0005C97.9195 24.0119 98.6249 24.2374 99.2221 24.6485C99.8194 25.0596 100.282 25.638 100.551 26.3111C100.821 26.9842 100.885 27.722 100.737 28.4317C100.589 29.1414 100.234 29.7914 99.717 30.3C99.2003 30.8087 98.5448 31.1533 97.8329 31.2906C97.1209 31.4279 96.3843 31.3517 95.7155 31.0717C95.0467 30.7916 94.4756 30.3202 94.0739 29.7166C93.6722 29.113 93.4579 28.4041 93.4578 27.679C93.4577 27.191 93.5547 26.7079 93.7432 26.2577C93.9317 25.8076 94.2079 25.3995 94.5557 25.0571C94.9034 24.7148 95.3159 24.445 95.7689 24.2636C96.2219 24.0822 96.7066 23.9927 97.1945 24.0005Z" fill="#293E40"/>
<path d="M100.059 34.0781H94.3302V55.5389H100.059V34.0781Z" fill="#293E40"/>
<path fill-rule="evenodd" clip-rule="evenodd" d="M123.759 51.1623C122.674 52.713 121.218 53.9673 119.524 54.8105C117.83 55.6537 115.952 56.0591 114.061 55.9895C111.099 55.9895 108.259 54.813 106.165 52.7189C104.071 50.6247 102.894 47.7845 102.894 44.8229C102.894 41.8613 104.071 39.0211 106.165 36.9269C108.259 34.8328 111.099 33.6563 114.061 33.6563C115.794 33.6503 117.506 34.0401 119.065 34.796C120.625 35.552 121.992 36.6541 123.061 38.0183L119.048 41.4497C118.48 40.6678 117.737 40.0293 116.879 39.5851C116.021 39.1408 115.071 38.903 114.104 38.8907C113.334 38.8906 112.572 39.0434 111.862 39.3402C111.151 39.637 110.507 40.0719 109.966 40.6197C109.425 41.1675 108.998 41.8173 108.71 42.5313C108.422 43.2453 108.279 44.0094 108.288 44.7793C108.266 45.5567 108.404 46.3304 108.693 47.0521C108.983 47.7738 109.419 48.428 109.973 48.9738C110.527 49.5196 111.187 49.9453 111.913 50.2243C112.639 50.5033 113.415 50.6295 114.192 50.5952C115.211 50.5759 116.211 50.3074 117.103 49.8132C117.995 49.319 118.752 48.6141 119.31 47.76L123.759 51.1623Z" fill="#293E40"/>
<path fill-rule="evenodd" clip-rule="evenodd" d="M144.565 52.1353C143.465 53.3549 142.118 54.3275 140.615 54.9891C139.111 55.6507 137.484 55.9863 135.841 55.9738C134.357 56.0416 132.874 55.8 131.488 55.2641C130.102 54.7282 128.843 53.9099 127.79 52.8611C126.737 51.8124 125.914 50.5561 125.372 49.172C124.831 47.788 124.584 46.3066 124.646 44.8218C124.646 38.8604 128.702 33.6406 135.056 33.6406C140.959 33.6406 145.147 38.6278 145.147 44.6037C145.15 45.1541 145.106 45.7037 145.016 46.2467H130.156C130.289 47.6785 130.967 49.0047 132.049 49.9516C133.131 50.8985 134.535 51.3939 135.972 51.3356C136.99 51.304 137.991 51.0676 138.915 50.6404C139.84 50.2132 140.668 49.604 141.352 48.8493L144.565 52.1353ZM139.244 42.0446C139.102 41.0161 138.598 40.0718 137.823 39.3815C137.047 38.6913 136.051 38.3003 135.013 38.2788C133.928 38.2725 132.875 38.6454 132.036 39.333C131.197 40.0206 130.625 40.9798 130.418 42.0446H139.244Z" fill="#293E40"/>
<path fill-rule="evenodd" clip-rule="evenodd" d="M147.371 55.5377V34.0769H152.882V35.8072C154.581 34.3965 156.722 33.6294 158.931 33.6407C160.342 33.6367 161.736 33.9433 163.015 34.5389C164.294 35.1344 165.426 36.0043 166.331 37.0867C167.785 38.7733 168.541 40.9397 168.541 44.6038V55.5377H162.798V44.1676C162.878 43.4453 162.806 42.7143 162.588 42.021C162.371 41.3278 162.011 40.6872 161.533 40.1401C160.657 39.3314 159.497 38.9027 158.305 38.9478C157.298 38.9771 156.31 39.2296 155.413 39.6873C154.515 40.1449 153.73 40.7962 153.115 41.594V55.5377H147.371Z" fill="#293E40"/>
<path fill-rule="evenodd" clip-rule="evenodd" d="M183.285 33.6406C180.772 33.6377 178.316 34.3893 176.236 35.798C174.155 37.2067 172.545 39.2077 171.614 41.5418C170.684 43.876 170.476 46.4357 171.016 48.8896C171.557 51.3434 172.823 53.5784 174.648 55.305C175.077 55.714 175.638 55.9564 176.23 55.9884C176.822 56.0204 177.405 55.8399 177.876 55.4795C179.42 54.3289 181.294 53.7074 183.219 53.7074C185.145 53.7074 187.019 54.3289 188.563 55.4795C189.037 55.8391 189.624 56.0176 190.219 55.9829C190.813 55.9483 191.376 55.7027 191.805 55.2904C193.619 53.5698 194.877 51.3466 195.418 48.9061C195.96 46.4656 195.76 43.919 194.845 41.5928C193.929 39.2666 192.34 37.2668 190.28 35.85C188.22 34.4332 185.785 33.6638 183.285 33.6406ZM183.285 52.4406C182.46 52.4626 181.639 52.3164 180.872 52.0107C180.105 51.705 179.409 51.2464 178.825 50.6627C178.242 50.079 177.783 49.3826 177.477 48.6159C177.172 47.8491 177.025 47.0282 177.047 46.203C177.006 45.3576 177.138 44.5127 177.433 43.7195C177.729 42.9263 178.182 42.2014 178.766 41.5886C179.35 40.9758 180.052 40.488 180.83 40.1547C181.608 39.8214 182.446 39.6495 183.292 39.6495C184.139 39.6495 184.976 39.8214 185.754 40.1547C186.532 40.488 187.234 40.9758 187.818 41.5886C188.402 42.2014 188.856 42.9263 189.151 43.7195C189.446 44.5127 189.578 45.3576 189.537 46.203C189.559 47.0294 189.412 47.8516 189.106 48.6194C188.799 49.3871 188.339 50.0842 187.754 50.6681C187.169 51.252 186.471 51.7103 185.702 52.0151C184.934 52.3199 184.111 52.4647 183.285 52.4406Z" fill="#81B5A1"/>
<path fill-rule="evenodd" clip-rule="evenodd" d="M207.057 55.5389H202.783L194.277 34.0781H199.991L204.658 46.3497L209.238 34.0781H214.022L218.559 46.3497L223.255 34.0781H228.984L220.463 55.5389H216.203L211.623 43.3255L207.057 55.5389Z" fill="#293E40"/>
<path d="M225.843 52.8203V53.2856H225.116V55.5393H224.592V53.2856H223.865V52.8203H225.843Z" fill="#293E40"/>
<path d="M227.617 54.4488L228.605 52.8203H228.983V55.5393H228.46V54.0126L227.806 55.0885H227.428L226.788 54.0126V55.5393H226.25V52.8203H226.628L227.617 54.4488Z" fill="#293E40"/>
</g>
<defs>
<clipPath id="clip0_589_3542">
<rect width="240" height="80" fill="white" transform="translate(0.5)"/>
</clipPath>
</defs>
</svg>
