<svg width="160" height="40" viewBox="0 0 160 40" fill="none" xmlns="http://www.w3.org/2000/svg">
<path d="M51.325 14.55C50.6083 14.55 49.9667 14.6917 49.4 14.975C48.85 15.2583 48.3833 15.6667 48 16.2C47.6167 16.7167 47.325 17.35 47.125 18.1C46.9417 18.85 46.85 19.6917 46.85 20.625C46.85 21.8917 47 22.975 47.3 23.875C47.6167 24.7583 48.1083 25.4333 48.775 25.9C49.4417 26.3667 50.2917 26.6 51.325 26.6C52.0583 26.6 52.7833 26.5167 53.5 26.35C54.2333 26.1833 55.025 25.95 55.875 25.65V28.825C55.0917 29.1417 54.3167 29.375 53.55 29.525C52.7833 29.675 51.925 29.75 50.975 29.75C49.1417 29.75 47.625 29.375 46.425 28.625C45.2417 27.8583 44.3667 26.7917 43.8 25.425C43.2333 24.0417 42.95 22.4333 42.95 20.6C42.95 19.25 43.1333 18.0167 43.5 16.9C43.8667 15.7667 44.4 14.7917 45.1 13.975C45.8167 13.1583 46.6917 12.525 47.725 12.075C48.775 11.625 49.975 11.4 51.325 11.4C52.2083 11.4 53.0917 11.5167 53.975 11.75C54.875 11.9667 55.7333 12.2667 56.55 12.65L55.325 15.725C54.6583 15.4083 53.9833 15.1333 53.3 14.9C52.6333 14.6667 51.975 14.55 51.325 14.55ZM71.768 22.65C71.768 23.7833 71.6096 24.7917 71.293 25.675C70.993 26.5583 70.5513 27.3083 69.968 27.925C69.4013 28.525 68.7096 28.9833 67.893 29.3C67.0763 29.6 66.1513 29.75 65.118 29.75C64.168 29.75 63.2846 29.6 62.468 29.3C61.668 28.9833 60.9763 28.525 60.393 27.925C59.8096 27.3083 59.3513 26.5583 59.018 25.675C58.7013 24.7917 58.543 23.7833 58.543 22.65C58.543 21.1333 58.8096 19.8583 59.343 18.825C59.8763 17.775 60.643 16.975 61.643 16.425C62.643 15.875 63.8263 15.6 65.193 15.6C66.4763 15.6 67.6096 15.875 68.593 16.425C69.5763 16.975 70.3513 17.775 70.918 18.825C71.4846 19.8583 71.768 21.1333 71.768 22.65ZM62.343 22.65C62.343 23.55 62.4346 24.3083 62.618 24.925C62.818 25.525 63.1263 25.9833 63.543 26.3C63.9596 26.6 64.5013 26.75 65.168 26.75C65.8346 26.75 66.368 26.6 66.768 26.3C67.1846 25.9833 67.4846 25.525 67.668 24.925C67.868 24.3083 67.968 23.55 67.968 22.65C67.968 21.75 67.868 21 67.668 20.4C67.4846 19.8 67.1846 19.35 66.768 19.05C66.3513 18.75 65.8096 18.6 65.143 18.6C64.1596 18.6 63.443 18.9417 62.993 19.625C62.5596 20.2917 62.343 21.3 62.343 22.65ZM90.8715 15.6C92.4215 15.6 93.5882 16 94.3715 16.8C95.1715 17.5833 95.5715 18.85 95.5715 20.6V29.5H91.8465V21.525C91.8465 20.5417 91.6798 19.8083 91.3465 19.325C91.0132 18.825 90.4965 18.575 89.7965 18.575C88.8132 18.575 88.1132 18.925 87.6965 19.625C87.2798 20.325 87.0715 21.3333 87.0715 22.65V29.5H83.3465V21.525C83.3465 20.875 83.2715 20.3333 83.1215 19.9C82.9715 19.4667 82.7465 19.1417 82.4465 18.925C82.1465 18.6917 81.7632 18.575 81.2965 18.575C80.6132 18.575 80.0715 18.75 79.6715 19.1C79.2715 19.45 78.9882 19.9583 78.8215 20.625C78.6548 21.2917 78.5715 22.1083 78.5715 23.075V29.5H74.8465V15.85H77.6965L78.1965 17.6H78.3965C78.6798 17.1333 79.0298 16.7583 79.4465 16.475C79.8632 16.175 80.3215 15.9583 80.8215 15.825C81.3382 15.675 81.8548 15.6 82.3715 15.6C83.3715 15.6 84.2215 15.7667 84.9215 16.1C85.6215 16.4167 86.1548 16.9167 86.5215 17.6H86.8465C87.2632 16.9 87.8382 16.3917 88.5715 16.075C89.3215 15.7583 90.0882 15.6 90.8715 15.6ZM107.007 15.6C108.54 15.6 109.782 16.2 110.732 17.4C111.682 18.5833 112.157 20.3333 112.157 22.65C112.157 24.2 111.932 25.5083 111.482 26.575C111.032 27.625 110.415 28.4167 109.632 28.95C108.849 29.4833 107.94 29.75 106.907 29.75C106.257 29.75 105.69 29.6667 105.207 29.5C104.74 29.3333 104.34 29.1167 104.007 28.85C103.674 28.5833 103.382 28.3 103.132 28H102.932C102.999 28.3167 103.049 28.65 103.082 29C103.115 29.3333 103.132 29.6667 103.132 30V35.5H99.407V15.85H102.432L102.957 17.625H103.132C103.382 17.2583 103.682 16.925 104.032 16.625C104.382 16.3083 104.799 16.0583 105.282 15.875C105.782 15.6917 106.357 15.6 107.007 15.6ZM105.807 18.575C105.157 18.575 104.64 18.7083 104.257 18.975C103.874 19.2417 103.59 19.65 103.407 20.2C103.24 20.7333 103.149 21.4083 103.132 22.225V22.625C103.132 23.5083 103.215 24.2583 103.382 24.875C103.549 25.475 103.832 25.9333 104.232 26.25C104.632 26.5667 105.174 26.725 105.857 26.725C106.424 26.725 106.89 26.5667 107.257 26.25C107.624 25.9333 107.899 25.4667 108.082 24.85C108.265 24.2333 108.357 23.4833 108.357 22.6C108.357 21.2667 108.149 20.2667 107.732 19.6C107.332 18.9167 106.69 18.575 105.807 18.575ZM120.827 15.575C122.661 15.575 124.061 15.975 125.027 16.775C126.011 17.5583 126.502 18.7667 126.502 20.4V29.5H123.902L123.177 27.65H123.077C122.694 28.1333 122.294 28.5333 121.877 28.85C121.477 29.1667 121.011 29.3917 120.477 29.525C119.961 29.675 119.319 29.75 118.552 29.75C117.752 29.75 117.027 29.6 116.377 29.3C115.744 28.9833 115.244 28.5083 114.877 27.875C114.511 27.225 114.327 26.4083 114.327 25.425C114.327 23.975 114.836 22.9083 115.852 22.225C116.869 21.525 118.394 21.1417 120.427 21.075L122.802 21V20.4C122.802 19.6833 122.611 19.1583 122.227 18.825C121.861 18.4917 121.344 18.325 120.677 18.325C120.011 18.325 119.361 18.425 118.727 18.625C118.094 18.8083 117.461 19.0417 116.827 19.325L115.602 16.8C116.336 16.4167 117.144 16.1167 118.027 15.9C118.927 15.6833 119.861 15.575 120.827 15.575ZM121.352 23.225C120.152 23.2583 119.319 23.475 118.852 23.875C118.386 24.275 118.152 24.8 118.152 25.45C118.152 26.0167 118.319 26.425 118.652 26.675C118.986 26.9083 119.419 27.025 119.952 27.025C120.752 27.025 121.427 26.7917 121.977 26.325C122.527 25.8417 122.802 25.1667 122.802 24.3V23.175L121.352 23.225ZM138.065 15.6C139.532 15.6 140.707 16 141.59 16.8C142.474 17.5833 142.915 18.85 142.915 20.6V29.5H139.19V21.525C139.19 20.5417 139.015 19.8083 138.665 19.325C138.315 18.825 137.757 18.575 136.99 18.575C135.857 18.575 135.082 18.9667 134.665 19.75C134.249 20.5167 134.04 21.625 134.04 23.075V29.5H130.315V15.85H133.165L133.665 17.6H133.865C134.165 17.1333 134.532 16.7583 134.965 16.475C135.399 16.175 135.882 15.9583 136.415 15.825C136.949 15.675 137.499 15.6 138.065 15.6ZM144.796 15.85H148.871L151.446 23.525C151.529 23.775 151.596 24.025 151.646 24.275C151.713 24.525 151.763 24.7833 151.796 25.05C151.846 25.3167 151.879 25.6 151.896 25.9H151.971C152.021 25.4667 152.088 25.0583 152.171 24.675C152.271 24.275 152.379 23.8917 152.496 23.525L155.021 15.85H159.021L153.246 31.25C152.896 32.1833 152.438 32.9667 151.871 33.6C151.321 34.2333 150.679 34.7083 149.946 35.025C149.213 35.3417 148.413 35.5 147.546 35.5C147.129 35.5 146.763 35.475 146.446 35.425C146.146 35.3917 145.879 35.35 145.646 35.3V32.35C145.829 32.3833 146.046 32.4167 146.296 32.45C146.563 32.4833 146.838 32.5 147.121 32.5C147.638 32.5 148.079 32.3917 148.446 32.175C148.829 31.9583 149.146 31.6583 149.396 31.275C149.646 30.9083 149.846 30.5083 149.996 30.075L150.221 29.4L144.796 15.85Z" fill="#292930"/>
<rect x="20.1945" y="2.85156" width="32.9123" height="8.84739" rx="4.42369" transform="rotate(60 20.1945 2.85156)" fill="#5956E8"/>
<rect width="32.9123" height="8.84739" rx="4.42369" transform="matrix(-0.5 0.866025 0.866025 0.5 16.9561 2.5)" fill="#474747"/>
<rect x="1.5" y="25.5" width="34" height="9" rx="4.5" fill="#FF60C9"/>
</svg>
