<svg width="19" height="14" viewBox="0 0 19 14" fill="none" xmlns="http://www.w3.org/2000/svg">
<path d="M15.3282 1.79516C14.1571 1.31063 12.9214 0.964816 11.6518 0.766332C11.6403 0.764585 11.6285 0.766094 11.618 0.770649C11.6075 0.775205 11.5988 0.782585 11.5931 0.791773C11.434 1.04618 11.2579 1.37895 11.1349 1.63947C9.76638 1.45223 8.37439 1.45223 7.0059 1.63947C6.86866 1.34926 6.7134 1.06624 6.54086 0.791773C6.53507 0.782685 6.52636 0.775391 6.51588 0.77085C6.50541 0.766309 6.49365 0.764734 6.48216 0.766332C5.21232 0.963754 3.97634 1.30975 2.80582 1.79516C2.7958 1.79861 2.78743 1.80508 2.78212 1.81348C0.441089 4.96714 -0.201171 8.04346 0.113751 11.0811C0.114879 11.0954 0.125038 11.1096 0.137454 11.1188C1.50067 12.0292 3.02547 12.7243 4.64681 13.1744C4.65826 13.1777 4.67056 13.1775 4.68193 13.1741C4.6933 13.1706 4.70314 13.1639 4.71002 13.1551C5.05768 12.7277 5.36696 12.2768 5.63334 11.8026C5.63889 11.7929 5.64079 11.7817 5.63876 11.7709C5.63673 11.7601 5.63087 11.7502 5.62205 11.7426C5.61622 11.7376 5.6093 11.7338 5.60174 11.7314C5.11543 11.5629 4.64444 11.3604 4.19306 11.1259C4.18045 11.1194 4.17107 11.1089 4.16687 11.0964C4.16267 11.0839 4.16396 11.0704 4.17048 11.0587C4.17432 11.0511 4.18013 11.0445 4.18741 11.0394C4.28223 10.9753 4.37704 10.9081 4.46734 10.841C4.47532 10.8352 4.48489 10.8315 4.49503 10.8302C4.50517 10.8289 4.5155 10.8302 4.52491 10.8338C7.48111 12.0509 10.6811 12.0509 13.6012 10.8338C13.6109 10.83 13.6217 10.8287 13.6322 10.8299C13.6427 10.8312 13.6527 10.835 13.661 10.841C13.7513 10.9081 13.8461 10.9753 13.9409 11.0394C13.9486 11.0445 13.9548 11.0512 13.9589 11.0589C13.963 11.0666 13.9649 11.0752 13.9645 11.0837C13.964 11.0923 13.9612 11.1006 13.9563 11.108C13.9515 11.1154 13.9446 11.1215 13.9364 11.1259C13.4861 11.3626 13.0145 11.5648 12.5266 11.7304C12.5188 11.7329 12.5118 11.737 12.5059 11.7422C12.5001 11.7475 12.4956 11.7539 12.4928 11.7609C12.4901 11.7677 12.4891 11.7749 12.4897 11.7821C12.4903 11.7892 12.4925 11.7962 12.4961 11.8026C12.767 12.2758 13.0775 12.7277 13.4183 13.1551C13.4252 13.1639 13.4351 13.1706 13.4464 13.1741C13.4578 13.1775 13.4701 13.1777 13.4815 13.1744C15.1056 12.7256 16.6329 12.0305 17.9977 11.1188C18.0045 11.1145 18.0102 11.1089 18.0143 11.1024C18.0184 11.0959 18.0208 11.0886 18.0214 11.0811C18.3984 7.56924 17.3904 4.51836 15.3508 1.8145C15.3487 1.81003 15.3456 1.80601 15.3417 1.80268C15.3379 1.79934 15.3332 1.79679 15.3282 1.79516ZM6.07468 9.23105C5.1841 9.23105 4.45154 8.49428 4.45154 7.59062C4.45154 6.68593 5.17055 5.94916 6.07468 5.94916C6.98559 5.94916 7.71137 6.69204 7.69783 7.59062C7.69783 8.49428 6.97881 9.23105 6.07468 9.23105ZM12.0751 9.23105C11.1857 9.23105 10.452 8.49428 10.452 7.59062C10.452 6.68593 11.171 5.94916 12.0751 5.94916C12.986 5.94916 13.7129 6.69204 13.6983 7.59062C13.6983 8.49428 12.986 9.23105 12.0751 9.23105Z" fill="#2C2F73"/>
</svg>
