<svg width="19" height="20" viewBox="0 0 19 20" fill="none" xmlns="http://www.w3.org/2000/svg">
<path fill-rule="evenodd" clip-rule="evenodd" d="M5.3463 0.821475C6.30924 0.77578 6.61626 0.765625 9.06916 0.765625C11.5221 0.765625 11.8291 0.776626 12.7912 0.821475C13.7533 0.866324 14.4101 1.02457 14.9847 1.25389C15.5864 1.48829 16.1323 1.8547 16.5838 2.32858C17.0436 2.79315 17.3982 3.35504 17.6248 3.97616C17.8481 4.56851 18.0008 5.24548 18.0451 6.23555C18.0894 7.22985 18.0993 7.54633 18.0993 10.074C18.0993 12.6025 18.0886 12.9189 18.0451 13.9115C18.0016 14.9016 17.8481 15.5786 17.6248 16.1709C17.3982 16.7921 17.043 17.355 16.5838 17.8202C16.1323 18.2941 15.5864 18.6597 14.9847 18.8932C14.4101 19.1234 13.7533 19.2808 12.7928 19.3265C11.8291 19.3722 11.5221 19.3823 9.06916 19.3823C6.61626 19.3823 6.30924 19.3713 5.3463 19.3265C4.38582 19.2816 3.72909 19.1234 3.15445 18.8932C2.55183 18.6596 2.00583 18.2935 1.55448 17.8202C1.09508 17.3554 0.739564 16.7928 0.512732 16.1718C0.290263 15.5794 0.137573 14.9025 0.0932431 13.9124C0.0489135 12.9181 0.0390625 12.6016 0.0390625 10.074C0.0390625 7.54549 0.0497344 7.229 0.0932431 6.23724C0.136752 5.24548 0.290263 4.56851 0.512732 3.97616C0.739899 3.35511 1.09568 2.79257 1.5553 2.32773C2.00602 1.85428 2.55146 1.48782 3.15363 1.25389C3.72827 1.02457 4.385 0.867171 5.34548 0.821475H5.3463ZM12.7181 2.49698C11.7659 2.45213 11.4802 2.44282 9.06916 2.44282C6.65813 2.44282 6.37245 2.45213 5.42018 2.49698C4.53934 2.53844 4.06156 2.68991 3.74305 2.81769C3.32191 2.98693 3.02064 3.18749 2.70458 3.51328C2.40499 3.81373 2.17442 4.17949 2.02979 4.58374C1.90583 4.91207 1.75889 5.40457 1.71866 6.31255C1.67515 7.29416 1.66612 7.58864 1.66612 10.074C1.66612 12.5593 1.67515 12.8538 1.71866 13.8354C1.75889 14.7434 1.90583 15.2359 2.02979 15.5642C2.17427 15.9678 2.40495 16.3343 2.70458 16.6347C2.99601 16.9435 3.35147 17.1813 3.74305 17.3302C4.06156 17.458 4.53934 17.6095 5.42018 17.651C6.37245 17.6958 6.6573 17.7051 9.06916 17.7051C11.481 17.7051 11.7659 17.6958 12.7181 17.651C13.599 17.6095 14.0768 17.458 14.3953 17.3302C14.8164 17.161 15.1177 16.9605 15.4337 16.6347C15.7334 16.3343 15.9641 15.9678 16.1085 15.5642C16.2325 15.2359 16.3794 14.7434 16.4197 13.8354C16.4632 12.8538 16.4722 12.5593 16.4722 10.074C16.4722 7.58864 16.4632 7.29416 16.4197 6.31255C16.3794 5.40457 16.2325 4.91207 16.1085 4.58374C15.9444 4.14963 15.7498 3.83907 15.4337 3.51328C15.1423 3.20447 14.7874 2.9668 14.3953 2.81769C14.0768 2.68991 13.599 2.53844 12.7181 2.49698ZM7.91577 12.9435C8.55991 13.2199 9.27717 13.2572 9.94502 13.049C10.6129 12.8409 11.1899 12.4001 11.5776 11.8021C11.9652 11.2041 12.1394 10.486 12.0705 9.77027C12.0015 9.05457 11.6936 8.38575 11.1994 7.87805C10.8844 7.5535 10.5035 7.305 10.0841 7.15043C9.6647 6.99585 9.21728 6.93906 8.77404 6.98412C8.3308 7.02919 7.90276 7.17499 7.52075 7.41105C7.13874 7.6471 6.81225 7.96753 6.56479 8.34926C6.31733 8.731 6.15506 9.16454 6.08965 9.61868C6.02425 10.0728 6.05734 10.5363 6.18654 10.9756C6.31574 11.415 6.53785 11.8194 6.83686 12.1597C7.13587 12.4999 7.50435 12.7676 7.91577 12.9435ZM5.78713 6.69081C6.21813 6.24653 6.72981 5.8941 7.29294 5.65366C7.85607 5.41321 8.45963 5.28946 9.06916 5.28946C9.67869 5.28946 10.2823 5.41321 10.8454 5.65366C11.4085 5.8941 11.9202 6.24653 12.3512 6.69081C12.7822 7.13509 13.1241 7.66253 13.3573 8.24302C13.5906 8.8235 13.7107 9.44566 13.7107 10.074C13.7107 10.7023 13.5906 11.3244 13.3573 11.9049C13.1241 12.4854 12.7822 13.0128 12.3512 13.4571C11.4807 14.3544 10.3002 14.8585 9.06916 14.8585C7.83816 14.8585 6.65758 14.3544 5.78713 13.4571C4.91668 12.5599 4.42767 11.3429 4.42767 10.074C4.42767 8.80504 4.91668 7.58808 5.78713 6.69081ZM14.7401 6.00199C14.8469 5.89814 14.9324 5.77325 14.9915 5.63471C15.0507 5.49618 15.0822 5.34683 15.0844 5.19549C15.0865 5.04416 15.0592 4.89392 15.004 4.75367C14.9488 4.61342 14.8668 4.48601 14.763 4.37899C14.6592 4.27197 14.5356 4.18751 14.3995 4.13061C14.2635 4.07371 14.1177 4.04553 13.9709 4.04773C13.8241 4.04994 13.6792 4.08249 13.5448 4.14345C13.4104 4.20441 13.2893 4.29255 13.1885 4.40265C12.9926 4.61677 12.8853 4.90117 12.8895 5.19549C12.8936 5.48981 13.0089 5.77087 13.2108 5.97901C13.4127 6.18715 13.6854 6.30598 13.9709 6.31027C14.2564 6.31456 14.5323 6.20398 14.7401 6.00199Z" fill="#2C2F73"/>
</svg>
