<svg width="21" height="20" viewBox="0 0 21 20" fill="none" xmlns="http://www.w3.org/2000/svg">
<path d="M20.2571 11.8978V19.3188H15.9546V12.3952C15.9546 10.6567 15.3334 9.46951 13.7756 9.46951C12.5868 9.46951 11.8805 10.2688 11.5687 11.0427C11.4554 11.3193 11.4262 11.7034 11.4262 12.0913V19.3185H7.12336C7.12336 19.3185 7.18112 7.59212 7.12336 6.37828H11.4265V8.21204C11.4178 8.22647 11.4057 8.24059 11.398 8.25439H11.4265V8.21204C11.9983 7.33222 13.018 6.07442 15.3042 6.07442C18.1349 6.07442 20.2571 7.9239 20.2571 11.8978ZM2.62224 0.140625C1.15042 0.140625 0.1875 1.10676 0.1875 2.37611C0.1875 3.6185 1.12251 4.61255 2.56577 4.61255H2.59368C4.09438 4.61255 5.02746 3.6185 5.02746 2.37611C4.9989 1.10676 4.09438 0.140625 2.62224 0.140625ZM0.443231 19.3188H4.74445V6.37828H0.443231V19.3188Z" fill="#F1F2F2"/>
</svg>
