<svg width="21" height="27" viewBox="0 0 21 27" fill="none" xmlns="http://www.w3.org/2000/svg">
<path d="M10.14 0.804688C7.5065 0.807794 4.98178 1.85531 3.11963 3.71746C1.25748 5.57961 0.209965 8.10433 0.206859 10.7378C0.203705 12.8899 0.906674 14.9836 2.20793 16.6977C2.20793 16.6977 2.47883 17.0544 2.52308 17.1058L10.14 26.089L17.7605 17.1013C17.8002 17.0534 18.072 16.6977 18.072 16.6977L18.0729 16.695C19.3735 14.9816 20.0762 12.8889 20.0731 10.7378C20.07 8.10433 19.0225 5.57961 17.1603 3.71746C15.2982 1.85531 12.7734 0.807794 10.14 0.804688ZM10.14 14.3498C9.42557 14.3498 8.72722 14.138 8.13323 13.7411C7.53923 13.3442 7.07627 12.7801 6.80288 12.1201C6.52949 11.4601 6.45796 10.7338 6.59733 10.0331C6.7367 9.33246 7.08072 8.68885 7.58587 8.1837C8.09102 7.67855 8.73463 7.33453 9.4353 7.19516C10.136 7.05579 10.8622 7.12732 11.5222 7.40071C12.1823 7.67409 12.7464 8.13706 13.1433 8.73106C13.5402 9.32505 13.752 10.0234 13.752 10.7378C13.7508 11.6954 13.3699 12.6134 12.6927 13.2906C12.0156 13.9677 11.0976 14.3486 10.14 14.3498Z" fill="white"/>
</svg>
