<svg xmlns="http://www.w3.org/2000/svg" version="1.1" xmlns:xlink="http://www.w3.org/1999/xlink" width="512" height="512" x="0" y="0" viewBox="0 0 32 32" style="enable-background:new 0 0 512 512" xml:space="preserve"><defs><linearGradient id="a" x1="2.794" x2="25.809" y1="29.867" y2="5.701" gradientUnits="userSpaceOnUse"><stop offset="0" stop-color="#00a1e2"></stop><stop offset="1" stop-color="#00e0a5"></stop></linearGradient></defs><g><linearGradient id="a" x1="2.794" x2="25.809" y1="29.867" y2="5.701" gradientUnits="userSpaceOnUse"><stop offset="0" stop-color="#00a1e2"></stop><stop offset="1" stop-color="#00e0a5"></stop></linearGradient><path fill="url(&quot;#a&quot;)" d="M16 1a15 15 0 1 0 15 15A15 15 0 0 0 16 1zm.643 9.214a5.149 5.149 0 0 1 5.143 5.143H20.5a3.861 3.861 0 0 0-3.857-3.857zM20.808 25c-.039 0-3.9-.066-8.865-4.943C7.066 15.094 7 11.231 7 11.192 7 10.711 10 7 10.663 7c.23 0 .409.156.605.39.472.562 2.559 3.856 2.463 4.405-.046.258-.265.454-.893.981a7.416 7.416 0 0 0-.866.8 6.906 6.906 0 0 0 .566 1.526 9.435 9.435 0 0 0 4.362 4.36 6.906 6.906 0 0 0 1.526.566 7.416 7.416 0 0 0 .8-.866c.527-.628.723-.847.981-.893.549-.1 3.843 1.991 4.405 2.463.234.2.39.375.39.605C25 22 21.289 25 20.808 25zm2.906-9.643a7.079 7.079 0 0 0-7.071-7.071V7A8.367 8.367 0 0 1 25 15.357z" data-name="Layer 3" opacity="1" data-original="url(#a)"></path></g></svg>