<svg width="30" height="25" viewBox="0 0 30 25" fill="none" xmlns="http://www.w3.org/2000/svg">
<g clip-path="url(#clip0_610_4742)">
<path d="M24.7761 14.1787H27.1841C27.1841 8.00208 22.521 3.34375 16.3359 3.34375V5.75178C21.2266 5.75178 24.7761 9.29519 24.7761 14.1787Z" fill="white"/>
<path d="M16.3452 10.5704C18.8772 10.5704 19.9572 11.6504 19.9572 14.1824H22.3652C22.3652 10.2995 20.2281 8.16236 16.3452 8.16236V10.5704ZM20.4653 17.1238C20.2339 16.9136 19.9299 16.8014 19.6174 16.8111C19.3049 16.8207 19.0084 16.9514 18.7905 17.1756L15.9093 20.1387C15.2158 20.0062 13.8215 19.5716 12.3864 18.14C10.9512 16.7036 10.5165 15.3058 10.3877 14.6171L13.3484 11.7347C13.5728 11.5169 13.7037 11.2203 13.7134 10.9078C13.723 10.5952 13.6107 10.2911 13.4001 10.0599L8.95131 5.16798C8.74066 4.93604 8.44789 4.79535 8.13518 4.77579C7.82246 4.75623 7.51444 4.85934 7.27653 5.06323L4.66382 7.3039C4.45566 7.51282 4.33142 7.79087 4.31466 8.08531C4.2966 8.38631 3.95225 15.5165 9.48108 21.0477C14.3044 25.8698 20.3461 26.2226 22.01 26.2226C22.2533 26.2226 22.4026 26.2153 22.4423 26.2129C22.7367 26.1965 23.0146 26.0717 23.2225 25.8626L25.462 23.2487C25.666 23.0109 25.7693 22.703 25.75 22.3903C25.7306 22.0775 25.5902 21.7847 25.3584 21.5739L20.4653 17.1238Z" fill="white"/>
</g>
<defs>
<clipPath id="clip0_610_4742">
<rect width="28.8963" height="23.9267" fill="white" transform="translate(0.695312 0.9375)"/>
</clipPath>
</defs>
</svg>
