<svg width="51" height="54" viewBox="0 0 51 54" fill="none" xmlns="http://www.w3.org/2000/svg">
<g clip-path="url(#clip0_406_5399)">
<path fill-rule="evenodd" clip-rule="evenodd" d="M14.9022 27.0023L6.74294 6.74832C6.13623 5.23471 6.85872 3.51059 8.35661 2.89756C9.28823 2.51629 10.302 2.65205 11.0802 3.1751L42.7938 24.5392C44.1399 25.4461 44.5038 27.2841 43.6062 28.6444C43.3825 28.9846 43.0905 29.2745 42.7487 29.4958L11.0802 50.8295C9.73407 51.7364 7.91513 51.3687 7.01762 50.0085C6.4296 49.1172 6.38313 48.0207 6.7997 47.1156L14.9022 27.0023Z" stroke="#2C2F73" stroke-width="6" stroke-miterlimit="22.9256" stroke-linecap="round" stroke-linejoin="round"/>
<path fill-rule="evenodd" clip-rule="evenodd" d="M15.8849 40.4372L35.8317 26.9998L15.8848 13.5625L21.298 26.9998L15.8849 40.4372Z" fill="#F21D2F"/>
</g>
<defs>
<clipPath id="clip0_406_5399">
<rect width="50.625" height="54" fill="white"/>
</clipPath>
</defs>
</svg>
