<svg width="258" height="240" viewBox="0 0 258 240" fill="none" xmlns="http://www.w3.org/2000/svg">
<circle cx="129" cy="120" r="118.5" stroke="url(#paint0_linear_263_28557)" stroke-width="3"/>
<circle cx="129" cy="120" r="104" fill="url(#paint1_linear_263_28557)"/>
<circle cx="247.5" cy="119.5" r="9" stroke="url(#paint2_linear_263_28557)" stroke-width="3"/>
<circle cx="10.5" cy="119.5" r="9" stroke="url(#paint3_linear_263_28557)" stroke-width="3"/>
<path d="M119.443 124.572C117.653 124.572 116.025 124.161 114.559 123.34C113.092 122.504 111.823 121.353 110.753 119.886C109.697 118.419 108.883 116.725 108.311 114.804C107.739 112.868 107.453 110.8 107.453 108.6C107.453 106.4 107.739 104.339 108.311 102.418C108.883 100.482 109.697 98.7807 110.753 97.314C111.823 95.8473 113.092 94.7033 114.559 93.882C116.025 93.046 117.653 92.628 119.443 92.628C121.232 92.628 122.86 93.046 124.327 93.882C125.793 94.7033 127.047 95.8473 128.089 97.314C129.145 98.7807 129.959 100.482 130.531 102.418C131.117 104.339 131.411 106.4 131.411 108.6C131.411 110.8 131.117 112.868 130.531 114.804C129.959 116.725 129.145 118.419 128.089 119.886C127.047 121.353 125.793 122.504 124.327 123.34C122.86 124.161 121.232 124.572 119.443 124.572ZM119.443 119.204C121.012 119.204 122.31 118.705 123.337 117.708C124.363 116.711 125.126 115.405 125.625 113.792C126.123 112.179 126.373 110.448 126.373 108.6C126.373 106.649 126.109 104.875 125.581 103.276C125.053 101.663 124.275 100.379 123.249 99.426C122.222 98.4727 120.953 97.996 119.443 97.996C118.255 97.996 117.221 98.2893 116.341 98.876C115.475 99.448 114.757 100.233 114.185 101.23C113.613 102.227 113.187 103.364 112.909 104.64C112.63 105.901 112.491 107.221 112.491 108.6C112.491 110.433 112.74 112.164 113.239 113.792C113.752 115.405 114.522 116.711 115.549 117.708C116.59 118.705 117.888 119.204 119.443 119.204ZM134.49 124V119.204C135.444 118.485 136.573 117.598 137.878 116.542C139.184 115.471 140.526 114.32 141.904 113.088C143.283 111.841 144.559 110.595 145.732 109.348C146.906 108.101 147.859 106.913 148.592 105.784C149.34 104.655 149.714 103.687 149.714 102.88C149.714 101.985 149.494 101.171 149.054 100.438C148.614 99.69 148.028 99.096 147.294 98.656C146.576 98.216 145.769 97.996 144.874 97.996C143.98 97.996 143.166 98.216 142.432 98.656C141.699 99.096 141.112 99.69 140.672 100.438C140.232 101.171 140.012 101.985 140.012 102.88H134.644C134.644 100.944 135.114 99.206 136.052 97.666C136.991 96.1113 138.23 94.8867 139.77 93.992C141.325 93.0827 143.026 92.628 144.874 92.628C146.752 92.628 148.46 93.09 150 94.014C151.54 94.9233 152.772 96.1553 153.696 97.71C154.62 99.2647 155.082 100.988 155.082 102.88C155.082 103.877 154.899 104.882 154.532 105.894C154.166 106.906 153.652 107.925 152.992 108.952C152.332 109.979 151.555 111.02 150.66 112.076C149.766 113.117 148.776 114.188 147.69 115.288C146.62 116.373 145.49 117.488 144.302 118.632H155.236V124H134.49Z" fill="#2E2E2E"/>
<path d="M115.181 146.26C114.427 146.26 113.701 146.143 113.001 145.91C112.301 145.67 111.687 145.33 111.161 144.89C110.641 144.45 110.271 143.927 110.051 143.32L111.621 142.73C111.754 143.103 112.001 143.43 112.361 143.71C112.727 143.983 113.157 144.197 113.651 144.35C114.144 144.503 114.654 144.58 115.181 144.58C115.781 144.58 116.337 144.483 116.851 144.29C117.371 144.09 117.791 143.813 118.111 143.46C118.431 143.107 118.591 142.693 118.591 142.22C118.591 141.733 118.424 141.337 118.091 141.03C117.757 140.717 117.331 140.47 116.811 140.29C116.291 140.103 115.747 139.96 115.181 139.86C114.214 139.7 113.347 139.473 112.581 139.18C111.821 138.88 111.217 138.463 110.771 137.93C110.331 137.397 110.111 136.693 110.111 135.82C110.111 135.007 110.344 134.297 110.811 133.69C111.284 133.083 111.907 132.613 112.681 132.28C113.454 131.947 114.287 131.78 115.181 131.78C115.921 131.78 116.637 131.897 117.331 132.13C118.031 132.357 118.647 132.69 119.181 133.13C119.714 133.57 120.097 134.107 120.331 134.74L118.741 135.32C118.607 134.94 118.357 134.613 117.991 134.34C117.631 134.06 117.204 133.847 116.711 133.7C116.224 133.547 115.714 133.47 115.181 133.47C114.587 133.463 114.034 133.56 113.521 133.76C113.007 133.96 112.591 134.237 112.271 134.59C111.951 134.943 111.791 135.353 111.791 135.82C111.791 136.38 111.937 136.81 112.231 137.11C112.531 137.403 112.937 137.623 113.451 137.77C113.964 137.917 114.541 138.047 115.181 138.16C116.087 138.313 116.927 138.557 117.701 138.89C118.474 139.217 119.094 139.653 119.561 140.2C120.034 140.747 120.271 141.42 120.271 142.22C120.271 143.033 120.034 143.743 119.561 144.35C119.094 144.957 118.474 145.427 117.701 145.76C116.927 146.093 116.087 146.26 115.181 146.26ZM132.618 132V133.68H127.958V146H126.278V133.68H121.628V132H132.618ZM134.626 146V132H143.216V133.68H136.306V137.66H141.966V139.34H136.306V144.32H143.216V146H134.626ZM145.524 146V132H150.144C150.898 132 151.574 132.183 152.174 132.55C152.781 132.917 153.261 133.413 153.614 134.04C153.974 134.66 154.154 135.353 154.154 136.12C154.154 136.9 153.971 137.603 153.604 138.23C153.244 138.85 152.758 139.343 152.144 139.71C151.538 140.07 150.871 140.25 150.144 140.25H147.204V146H145.524ZM147.204 138.57H149.994C150.448 138.57 150.861 138.46 151.234 138.24C151.614 138.013 151.914 137.71 152.134 137.33C152.361 136.943 152.474 136.51 152.474 136.03C152.474 135.543 152.361 135.11 152.134 134.73C151.914 134.343 151.614 134.04 151.234 133.82C150.861 133.593 150.448 133.48 149.994 133.48H147.204V138.57Z" fill="#2E2E2E"/>
<defs>
<linearGradient id="paint0_linear_263_28557" x1="70.5" y1="17" x2="196" y2="220.5" gradientUnits="userSpaceOnUse">
<stop stop-color="#F97549"/>
<stop offset="1" stop-color="#D82108"/>
</linearGradient>
<linearGradient id="paint1_linear_263_28557" x1="60.5" y1="44.5" x2="206" y2="218" gradientUnits="userSpaceOnUse">
<stop stop-color="#F6914F"/>
<stop offset="1" stop-color="#F97549"/>
</linearGradient>
<linearGradient id="paint2_linear_263_28557" x1="242.381" y1="110.487" x2="253.363" y2="128.294" gradientUnits="userSpaceOnUse">
<stop stop-color="#F97549"/>
<stop offset="1" stop-color="#D82108"/>
</linearGradient>
<linearGradient id="paint3_linear_263_28557" x1="5.38125" y1="110.487" x2="16.3625" y2="128.294" gradientUnits="userSpaceOnUse">
<stop stop-color="#F97549"/>
<stop offset="1" stop-color="#D82108"/>
</linearGradient>
</defs>
</svg>
