<svg width="258" height="240" viewBox="0 0 258 240" fill="none" xmlns="http://www.w3.org/2000/svg">
<circle cx="129" cy="120" r="118.5" stroke="url(#paint0_linear_263_28570)" stroke-width="3"/>
<circle cx="129" cy="120" r="104" fill="#E4A321"/>
<circle cx="247.5" cy="119.5" r="9" stroke="url(#paint1_linear_263_28570)" stroke-width="3"/>
<circle cx="10.5" cy="119.5" r="9" stroke="url(#paint2_linear_263_28570)" stroke-width="3"/>
<path d="M121.749 124.572C119.96 124.572 118.332 124.161 116.865 123.34C115.399 122.504 114.13 121.353 113.059 119.886C112.003 118.419 111.189 116.725 110.617 114.804C110.045 112.868 109.759 110.8 109.759 108.6C109.759 106.4 110.045 104.339 110.617 102.418C111.189 100.482 112.003 98.7807 113.059 97.314C114.13 95.8473 115.399 94.7033 116.865 93.882C118.332 93.046 119.96 92.628 121.749 92.628C123.539 92.628 125.167 93.046 126.633 93.882C128.1 94.7033 129.354 95.8473 130.395 97.314C131.451 98.7807 132.265 100.482 132.837 102.418C133.424 104.339 133.717 106.4 133.717 108.6C133.717 110.8 133.424 112.868 132.837 114.804C132.265 116.725 131.451 118.419 130.395 119.886C129.354 121.353 128.1 122.504 126.633 123.34C125.167 124.161 123.539 124.572 121.749 124.572ZM121.749 119.204C123.319 119.204 124.617 118.705 125.643 117.708C126.67 116.711 127.433 115.405 127.931 113.792C128.43 112.179 128.679 110.448 128.679 108.6C128.679 106.649 128.415 104.875 127.887 103.276C127.359 101.663 126.582 100.379 125.555 99.426C124.529 98.4727 123.26 97.996 121.749 97.996C120.561 97.996 119.527 98.2893 118.647 98.876C117.782 99.448 117.063 100.233 116.491 101.23C115.919 102.227 115.494 103.364 115.215 104.64C114.937 105.901 114.797 107.221 114.797 108.6C114.797 110.433 115.047 112.164 115.545 113.792C116.059 115.405 116.829 116.711 117.855 117.708C118.897 118.705 120.195 119.204 121.749 119.204ZM140.669 124V98.568H136.797L138.249 93.2H146.037V124H140.669Z" fill="#2E2E2E"/>
<path d="M112.181 146.26C111.427 146.26 110.701 146.143 110.001 145.91C109.301 145.67 108.687 145.33 108.161 144.89C107.641 144.45 107.271 143.927 107.051 143.32L108.621 142.73C108.754 143.103 109.001 143.43 109.361 143.71C109.727 143.983 110.157 144.197 110.651 144.35C111.144 144.503 111.654 144.58 112.181 144.58C112.781 144.58 113.337 144.483 113.851 144.29C114.371 144.09 114.791 143.813 115.111 143.46C115.431 143.107 115.591 142.693 115.591 142.22C115.591 141.733 115.424 141.337 115.091 141.03C114.757 140.717 114.331 140.47 113.811 140.29C113.291 140.103 112.747 139.96 112.181 139.86C111.214 139.7 110.347 139.473 109.581 139.18C108.821 138.88 108.217 138.463 107.771 137.93C107.331 137.397 107.111 136.693 107.111 135.82C107.111 135.007 107.344 134.297 107.811 133.69C108.284 133.083 108.907 132.613 109.681 132.28C110.454 131.947 111.287 131.78 112.181 131.78C112.921 131.78 113.637 131.897 114.331 132.13C115.031 132.357 115.647 132.69 116.181 133.13C116.714 133.57 117.097 134.107 117.331 134.74L115.741 135.32C115.607 134.94 115.357 134.613 114.991 134.34C114.631 134.06 114.204 133.847 113.711 133.7C113.224 133.547 112.714 133.47 112.181 133.47C111.587 133.463 111.034 133.56 110.521 133.76C110.007 133.96 109.591 134.237 109.271 134.59C108.951 134.943 108.791 135.353 108.791 135.82C108.791 136.38 108.937 136.81 109.231 137.11C109.531 137.403 109.937 137.623 110.451 137.77C110.964 137.917 111.541 138.047 112.181 138.16C113.087 138.313 113.927 138.557 114.701 138.89C115.474 139.217 116.094 139.653 116.561 140.2C117.034 140.747 117.271 141.42 117.271 142.22C117.271 143.033 117.034 143.743 116.561 144.35C116.094 144.957 115.474 145.427 114.701 145.76C113.927 146.093 113.087 146.26 112.181 146.26ZM129.618 132V133.68H124.958V146H123.278V133.68H118.628V132H129.618ZM131.626 146V132H140.216V133.68H133.306V137.66H138.966V139.34H133.306V144.32H140.216V146H131.626ZM142.524 146V132H147.144C147.898 132 148.574 132.183 149.174 132.55C149.781 132.917 150.261 133.413 150.614 134.04C150.974 134.66 151.154 135.353 151.154 136.12C151.154 136.9 150.971 137.603 150.604 138.23C150.244 138.85 149.758 139.343 149.144 139.71C148.538 140.07 147.871 140.25 147.144 140.25H144.204V146H142.524ZM144.204 138.57H146.994C147.448 138.57 147.861 138.46 148.234 138.24C148.614 138.013 148.914 137.71 149.134 137.33C149.361 136.943 149.474 136.51 149.474 136.03C149.474 135.543 149.361 135.11 149.134 134.73C148.914 134.343 148.614 134.04 148.234 133.82C147.861 133.593 147.448 133.48 146.994 133.48H144.204V138.57Z" fill="#2E2E2E"/>
<defs>
<linearGradient id="paint0_linear_263_28570" x1="129" y1="0" x2="213.5" y2="236.5" gradientUnits="userSpaceOnUse">
<stop stop-color="#E2A11A"/>
<stop offset="1" stop-color="#D82108"/>
</linearGradient>
<linearGradient id="paint1_linear_263_28570" x1="247.5" y1="109" x2="254.894" y2="129.694" gradientUnits="userSpaceOnUse">
<stop stop-color="#E2A11A"/>
<stop offset="1" stop-color="#D82108"/>
</linearGradient>
<linearGradient id="paint2_linear_263_28570" x1="10.5" y1="109" x2="17.8938" y2="129.694" gradientUnits="userSpaceOnUse">
<stop stop-color="#E2A11A"/>
<stop offset="1" stop-color="#D82108"/>
</linearGradient>
</defs>
</svg>
