<svg xmlns="http://www.w3.org/2000/svg" version="1.1" xmlns:xlink="http://www.w3.org/1999/xlink" width="512" height="512" x="0" y="0" viewBox="0 0 512 512" style="enable-background:new 0 0 512 512" xml:space="preserve" class=""><g><path d="M494.329 17.671C482.935 6.276 467.784 0 451.669 0c-16.116 0-31.266 6.276-42.66 17.67-5.388 5.388-10.8 11.759-16.084 18.934a8.152 8.152 0 0 0 1.731 11.399 8.152 8.152 0 0 0 11.399-1.731c4.8-6.518 9.673-12.262 14.484-17.073 8.316-8.314 19.371-12.893 31.131-12.893s22.815 4.58 31.131 12.895 12.895 19.371 12.895 31.131c0 11.76-4.58 22.815-12.895 31.131-8.408 8.408-19.691 16.943-31.802 24.305v-11.826c0-23.676-19.263-42.938-42.938-42.938H279.979c-16.115 0-31.266 6.276-42.661 17.671L10.029 305.963C3.561 312.431 0 321.029 0 330.176c0 9.146 3.561 17.745 10.029 24.212l147.583 147.583C164.08 508.439 172.679 512 181.824 512c9.146 0 17.745-3.561 24.213-10.029l227.289-227.289c11.396-11.394 17.671-26.546 17.671-42.661v-97.46c17.074-9.413 32.795-21.032 43.332-31.568C505.724 91.597 512 76.447 512 60.331c0-16.115-6.276-31.266-17.671-42.66zm-59.638 107.017c-3.534 1.722-7.064 3.317-10.541 4.724-21.253 8.605-38.49 9.917-44.984 3.422a8.152 8.152 0 0 0-11.529 0 8.152 8.152 0 0 0 0 11.529c4.507 4.507 10.298 7.13 16.944 8.246a17.936 17.936 0 0 1-11.179 3.924c-9.89 0-17.936-8.046-17.936-17.936s8.046-17.936 17.936-17.936c2.049 0 4.055.34 5.961 1.012a8.153 8.153 0 1 0 5.416-15.38 34.177 34.177 0 0 0-11.377-1.937c-18.881 0-34.242 15.361-34.242 34.242 0 18.881 15.361 34.242 34.242 34.242 13.728 0 26.087-8.244 31.453-20.724 9.506-1.653 19.696-5.025 29.837-9.48v89.384c0 11.76-4.58 22.816-12.895 31.131l-227.289 227.29c-6.993 6.993-18.371 6.994-25.365 0L21.559 342.859c-6.993-6.994-6.993-18.372 0-25.365l227.289-227.29c8.315-8.315 19.371-12.895 31.131-12.895h128.079c14.685 0 26.633 11.948 26.633 26.633v20.746z" fill="#3E417F" opacity="1" data-original="#000000" class=""></path></g></svg>