<svg width="22" height="18" viewBox="0 0 22 18" fill="none" xmlns="http://www.w3.org/2000/svg">
<path d="M21.5257 2.39259C20.7544 2.73464 19.9246 2.96598 19.0544 3.0693C19.9429 2.53698 20.6247 1.69471 20.9466 0.689447C20.1152 1.18261 19.194 1.54038 18.2144 1.73322C17.4296 0.897367 16.3114 0.375 15.0731 0.375C12.6975 0.375 10.7707 2.30179 10.7707 4.67747C10.7707 5.0147 10.8089 5.34294 10.8827 5.65803C7.30695 5.47866 4.13649 3.76589 2.0143 1.16208C1.64402 1.79739 1.43161 2.53698 1.43161 3.32535C1.43161 4.81768 2.19174 6.13515 3.34556 6.90651C2.64062 6.88437 1.97676 6.69089 1.39696 6.36778C1.39664 6.38607 1.39663 6.40436 1.39663 6.42233C1.39663 8.50698 2.88031 10.2457 4.84817 10.6407C4.48752 10.7396 4.10665 10.7919 3.71488 10.7919C3.43701 10.7919 3.16781 10.7652 2.90534 10.7152C3.45273 12.4241 5.04133 13.6681 6.92448 13.7031C5.45172 14.8572 3.5968 15.5448 1.58049 15.5448C1.23396 15.5448 0.890632 15.5246 0.554688 15.4845C2.45773 16.7057 4.71982 17.4177 7.14941 17.4177C15.0632 17.4177 19.391 10.8618 19.391 5.17577C19.391 4.98935 19.3868 4.80357 19.3785 4.61939C20.2198 4.01296 20.9491 3.2554 21.5257 2.39259Z" fill="#F1F2F2"/>
</svg>
