<svg xmlns="http://www.w3.org/2000/svg" version="1.1" xmlns:xlink="http://www.w3.org/1999/xlink" width="512" height="512" x="0" y="0" viewBox="0 0 512 512" style="enable-background:new 0 0 512 512" xml:space="preserve"><g><path fill="#CBE2FF" d="m256.025 483.334 101.429-25.614c57.895-48.074 94.771-120.586 94.771-201.719 0-125.144-87.711-229.801-205.012-255.852C109.897 4.78 0 117.556 0 256c0 71.112 29 135.446 75.812 181.836z" opacity="1" data-original="#cbe2ff"></path><path fill="#BED8FB" d="M446.914 256c0 83.915-40.381 158.391-102.765 205.079l92.031-23.241C482.995 391.448 512 327.114 512 256 512 114.615 397.385 0 256 0c-11.024 0-21.886.698-32.543 2.05C349.476 18.038 446.914 125.64 446.914 256z" opacity="1" data-original="#bed8fb"></path><path fill="#365E7D" d="M319.621 96.952c0-13.075-10.599-23.674-23.674-23.674h-81.582c-30.091 0-54.485 24.394-54.485 54.485v60.493h192.209v-59.635c0-13.075-10.599-23.674-23.674-23.674h-.798a7.995 7.995 0 0 1-7.996-7.995z" opacity="1" data-original="#365e7d"></path><path fill="#2B4D66" d="M328.415 104.947h-.798a7.996 7.996 0 0 1-7.996-7.996c0-13.075-10.599-23.674-23.674-23.674h-8.945v114.978h65.086V128.62c.001-13.073-10.599-23.673-23.673-23.673z" opacity="1" data-original="#2b4d66"></path><path fill="#4A80AA" d="M425.045 372.355a56.757 56.757 0 0 0-22.79-13.745l-69.891-22.128-76.348-2.683-76.38 2.683-69.891 22.128c-23.644 7.486-39.713 29.428-39.713 54.229v19.094c44.789 47.328 107.451 77.568 177.183 79.92 78.128-17.353 143.129-69.576 177.83-139.498z" opacity="1" data-original="#4a80aa"></path><path fill="#407093" d="M441.968 431.932v-19.094c0-17.536-8.04-33.635-21.105-44.213-37.111 75.626-110.422 130.268-197.346 141.317a258.334 258.334 0 0 0 32.026 2.057 273.717 273.717 0 0 0 30.824-1.782c61.031-7.212 115.485-35.894 155.601-78.285z" opacity="1" data-original="#407093"></path><path fill="#E4F6FF" d="M261.796 508.168c15.489-30.751 55.822-118.067 44.321-172.609l-50.101-19.499-50.148 19.5c-11.856 56.225 31.37 147.277 45.681 175.29a259.242 259.242 0 0 0 10.247-2.682z" opacity="1" data-original="#e4f6ff"></path><path fill="#E28086" d="m288.197 483.789-20.314-79.917h-23.767l-20.264 79.699 25.058 27.897a260.054 260.054 0 0 0 18.81-5.057z" opacity="1" data-original="#e28086"></path><path fill="#DD636E" d="M249.302 511.905c2.075.054 4.154.091 6.241.095 2.415-.004 4.822-.046 7.222-.113l12.907-14.259a254.021 254.021 0 0 1-31.309 8.779z" opacity="1" data-original="#dd636e"></path><path fill="#FFDDCE" d="M298.774 328.183v-45.066h-85.58v45.066c0 23.632 42.79 49.446 42.79 49.446s42.79-25.814 42.79-49.446z" opacity="1" data-original="#ffddce"></path><path fill="#FFDDCE" d="M352.089 180.318H335.73c-9.098 0-16.473-7.375-16.473-16.473v-9.015c0-11.851-11.595-20.23-22.847-16.511a128.797 128.797 0 0 1-80.823.006l-.031-.01c-11.252-3.717-22.845 4.662-22.845 16.512v9.019c0 9.098-7.375 16.473-16.473 16.473H159.88v26.938c0 6.883 5.58 12.464 12.464 12.464 2.172 0 3.939 1.701 4.076 3.869 2.628 41.668 37.235 74.654 79.565 74.654s76.937-32.986 79.565-74.654c.137-2.167 1.904-3.869 4.076-3.869 6.883 0 12.464-5.58 12.464-12.464v-26.939z" opacity="1" data-original="#ffddce"></path><path fill="#FFCBBE" d="M335.73 180.318c-9.098 0-16.473-7.375-16.473-16.473v-9.015c0-11.851-11.595-20.23-22.847-16.511a128.886 128.886 0 0 1-9.407 2.707v88.972c-.438 28.948-16.3 54.142-39.725 67.758a80.49 80.49 0 0 0 8.706.486c42.33 0 76.937-32.986 79.565-74.654.137-2.167 1.904-3.869 4.076-3.869 6.883 0 12.464-5.58 12.464-12.464v-26.938H335.73z" opacity="1" data-original="#ffcbbe"></path><g fill="#F4FBFF"><path d="m213.194 316.06-33.558 27.267 35.192 43.513a11.657 11.657 0 0 0 15.605.594l26.465-22.107zM298.79 316.06l-41.892 49.267 24.874 21.268a11.658 11.658 0 0 0 15.651-.453l34.94-42.815z" fill="#F4FBFF" opacity="1" data-original="#f4fbff"></path></g><path fill="#365E7D" d="m213.194 316.06-49.256 24.199a7.461 7.461 0 0 0-3.341 10.117l9.65 18.71a12.528 12.528 0 0 1-2.282 14.61 43639.5 43639.5 0 0 0-6.004 5.993c-3.338 3.332-4.537 8.255-3.067 12.737 11.651 35.517 67.725 89.828 88.946 109.478 1.427.038 2.857.064 4.29.08-15.389-29.933-69.922-143.655-38.936-195.924zM344.019 383.695a12.527 12.527 0 0 1-2.282-14.61l9.65-18.71a7.461 7.461 0 0 0-3.341-10.117L298.79 316.06c30.978 52.255-23.517 165.929-38.923 195.9 1.448-.025 2.893-.061 4.335-.109 21.265-19.695 77.248-73.94 88.888-109.424 1.47-4.482.271-9.405-3.067-12.737l-6.004-5.995z" opacity="1" data-original="#365e7d"></path><path fill="#DD636E" d="m256.898 365.327-26.06 21.764 13.278 16.781h23.767l13.279-17.771z" opacity="1" data-original="#dd636e"></path></g></svg>