<svg xmlns="http://www.w3.org/2000/svg" version="1.1" xmlns:xlink="http://www.w3.org/1999/xlink" width="512" height="512" x="0" y="0" viewBox="0 0 512 512" style="enable-background:new 0 0 512 512" xml:space="preserve"><g><path d="M105 210H45c-8.291 0-15-6.709-15-15v-60c0-24.814 20.186-45 45-45h30c8.291 0 15 6.709 15 15v90c0 8.291-6.709 15-15 15z" style="" fill="#57555C" data-original="#57555c"></path><path d="M482 195c0 8.291-6.709 15-15 15h-60c-8.291 0-15-6.709-15-15l-30-90c0-8.291 6.709-15 15-15h60c24.814 0 45 20.186 45 45v60z" style="" fill="#3C3A41" data-original="#3c3a41"></path><path d="M422 120v75c0 8.399-6.599 15-15 15H105c-8.401 0-15-6.601-15-15V15c0-8.401 6.599-15 15-15h197l30 90 90 30z" style="" fill="#E5E5E5" data-original="#e5e5e5"></path><path d="M407 210H256V0h46l30 90 90 30v75c0 8.399-6.599 15-15 15z" style="" fill="#D9D9D9" data-original="#d9d9d9"></path><path d="M467 180H45c-24.901 0-45 20.099-45 45v182c0 24.899 20.099 45 45 45h422c24.901 0 45-20.101 45-45V225c0-24.901-20.099-45-45-45z" style="" fill="#1BA9EF" data-original="#1ba9ef"></path><path d="M302 105c0 8.399 6.599 15 15 15h105L302 0v105z" style="" fill="#FE9923" data-original="#fe9923"></path><path d="M512 225v182c0 24.899-20.099 45-45 45H256V180h211c24.901 0 45 20.099 45 45z" style="" fill="#1689FC" data-original="#1689fc"></path><path d="M105 270H75c-8.291 0-15-6.709-15-15s6.709-15 15-15h30c8.291 0 15 6.709 15 15s-6.709 15-15 15z" style="" fill="#E1E4FB" data-original="#e1e4fb"></path><path d="M422 319.999V497c0 8.399-6.599 15-15 15H105c-8.401 0-15-6.601-15-15V319.999h332z" style="" fill="#E5E5E5" data-original="#e5e5e5"></path><path d="M422 319.999V497c0 8.399-6.599 15-15 15H256V319.999h166z" style="" fill="#D9D9D9" data-original="#d9d9d9"></path><path d="M362 377c0 8.399-6.599 15-15 15H165c-8.401 0-15-6.601-15-15 0-8.401 6.599-15 15-15h182c8.401 0 15 6.599 15 15zM362 437c0 8.399-6.599 15-15 15H165c-8.401 0-15-6.601-15-15 0-8.401 6.599-15 15-15h182c8.401 0 15 6.599 15 15z" style="" fill="#AEADB3" data-original="#aeadb3"></path><path d="M362 437c0 8.399-6.599 15-15 15h-91v-30h91c8.401 0 15 6.599 15 15zM362 377c0 8.399-6.599 15-15 15h-91v-30h91c8.401 0 15 6.599 15 15z" style="" fill="#8B8892" data-original="#8b8892"></path><path d="M452 317c0 8.399-6.599 15-15 15H75c-8.401 0-15-6.601-15-15 0-8.401 6.599-15 15-15h362c8.401 0 15 6.599 15 15z" style="" fill="#57555C" data-original="#57555c"></path><path d="M452 317c0 8.399-6.599 15-15 15H256v-30h181c8.401 0 15 6.599 15 15z" style="" fill="#3C3A41" data-original="#3c3a41"></path></g></svg>