<svg width="25" height="24" viewBox="0 0 25 24" fill="none" xmlns="http://www.w3.org/2000/svg">
<g clip-path="url(#clip0_575_4842)">
<path fill-rule="evenodd" clip-rule="evenodd" d="M24.8281 12C24.8281 18.6275 19.4556 24 12.8281 24C6.20071 24 0.828125 18.6275 0.828125 12C0.828125 5.37259 6.20071 0 12.8281 0C19.4556 0 24.8281 5.37259 24.8281 12ZM6.9519 14C6.87021 13.3448 6.82812 12.6773 6.82812 12C6.82812 11.3227 6.87022 10.6552 6.95193 10H3.02817C2.89699 10.6462 2.82812 11.3151 2.82812 12C2.82812 12.6849 2.89699 13.3537 3.02817 14H6.9519ZM7.33218 16H3.66022C4.83773 18.6951 7.16875 20.7707 10.0292 21.6031C8.78968 19.9536 7.86158 18.0568 7.33218 16ZM9.40789 16H16.2484C15.5904 18.2109 14.4009 20.1929 12.8281 21.798C11.2554 20.1929 10.0659 18.2109 9.40789 16ZM16.6864 14H8.96991C8.87648 13.3468 8.82812 12.679 8.82812 12C8.82812 11.321 8.87648 10.6532 8.96991 10H16.6864C16.7797 10.6532 16.8281 11.321 16.8281 12C16.8281 12.679 16.7797 13.3468 16.6864 14ZM18.7044 14C18.786 13.3448 18.8281 12.6773 18.8281 12C18.8281 11.3227 18.786 10.6552 18.7044 10H22.6281C22.7593 10.6462 22.8281 11.3151 22.8281 12C22.8281 12.6849 22.7593 13.3537 22.6281 14H18.7044ZM18.3241 16H21.996C20.8185 18.6951 18.4875 20.7707 15.6271 21.6031C16.8665 19.9536 17.7947 18.0568 18.3241 16ZM12.8281 2.20204C11.2554 3.80704 10.0659 5.78908 9.40789 8H16.2484C15.5904 5.78908 14.4009 3.80704 12.8281 2.20204ZM15.6271 2.39697C16.8665 4.04639 17.7947 5.94316 18.324 8H21.996C20.8185 5.30497 18.4875 3.22927 15.6271 2.39697ZM3.66022 8H7.3322C7.86161 5.94316 8.78972 4.04639 10.0292 2.39697C7.16877 3.22927 4.83773 5.30497 3.66022 8Z" fill="#2C2F73"/>
</g>
<defs>
<clipPath id="clip0_575_4842">
<rect width="24" height="24" fill="white" transform="translate(0.828125)"/>
</clipPath>
</defs>
</svg>
