<svg xmlns="http://www.w3.org/2000/svg" width="128.982" height="60.64" viewBox="0 0 128.982 60.64"><defs><style>.a{fill:#f21d2f;}.b{fill:#2c2f73;}.c{fill:#252759;}</style></defs><g transform="translate(-734.472 -115.513)"><path class="a" d="M764.445,163.042a78.4,78.4,0,0,1-11.52-15.691,83.823,83.823,0,0,1-4.3-8.755c-.315-.748-.62-1.5-.908-2.257s-.563-1.519-.808-2.273l-.085-.271-.074-.264c-.05-.186-.1-.375-.144-.565-.091-.381-.174-.767-.248-1.153-.148-.773-.266-1.553-.339-2.33a17.762,17.762,0,0,1-.077-2.313,11.242,11.242,0,0,1,.284-2.211,6.405,6.405,0,0,1,.773-1.92,4.144,4.144,0,0,1,1.355-1.355,5.132,5.132,0,0,1,1.895-.666,9.338,9.338,0,0,1,2.2-.064,20,20,0,0,1,4.572,1c.19.06.379.127.568.191l.283.1.272.1.263.1.264.122.53.246c.729.35,1.452.713,2.164,1.1,1.424.771,2.822,1.6,4.177,2.5.341.221.675.453,1.012.681s.668.465,1,.7q.994.709,1.958,1.464c.644.5,1.277,1.016,1.9,1.541s1.245,1.059,1.852,1.607a80.734,80.734,0,0,1,6.889,7.022q1.621,1.859,3.136,3.814c1.011,1.3,1.986,2.634,2.9,4.014-.382-.734-.8-1.45-1.225-2.159s-.867-1.412-1.323-2.1c-.909-1.386-1.872-2.738-2.875-4.062a72.615,72.615,0,0,0-6.562-7.515q-1.771-1.767-3.682-3.4-.954-.814-1.943-1.591t-2.013-1.506q-1.022-.734-2.082-1.419c-.7-.461-1.423-.9-2.151-1.32s-1.47-.824-2.219-1.212l-.585-.293-.294-.146-.315-.128-.307-.122-.3-.116c-.2-.074-.4-.151-.6-.222-.8-.288-1.624-.545-2.466-.758a18.163,18.163,0,0,0-2.594-.472,11.323,11.323,0,0,0-2.744.025,7.455,7.455,0,0,0-2.761.932,6.444,6.444,0,0,0-1.205.916,6.8,6.8,0,0,0-.953,1.159,8.614,8.614,0,0,0-1.122,2.633,13.654,13.654,0,0,0-.379,2.691,20.249,20.249,0,0,0,.058,2.636q.11,1.3.349,2.575.12.637.268,1.269c.05.211.1.422.16.636.029.109.056.209.093.333l.1.32c.263.818.546,1.609.843,2.4s.609,1.568.933,2.343c.649,1.549,1.354,3.071,2.1,4.573q.558,1.127,1.15,2.236c.394.74.8,1.474,1.218,2.2a79.676,79.676,0,0,0,5.538,8.389c1.014,1.336,2.065,2.644,3.166,3.91s2.249,2.49,3.438,3.675q.562.562,1.141,1.106c1.041.058,2.107.106,3.158.1Q765.783,164.443,764.445,163.042Z" transform="translate(-7.409 -3.125)"/><path class="a" d="M867.973,312.028a14.969,14.969,0,0,1-.307,1.555,9.659,9.659,0,0,1-.836,2.2,5.887,5.887,0,0,1-1.415,1.766,5.111,5.111,0,0,1-1.978,1,7.457,7.457,0,0,1-2.273.2q-.582-.034-1.165-.124c-.388-.065-.776-.137-1.161-.235a19.964,19.964,0,0,1-2.287-.712,35.974,35.974,0,0,1-4.4-2.036c-.716-.384-1.423-.789-2.122-1.208s-1.393-.85-2.079-1.294q-1.1-.717-2.156-1.48a21.423,21.423,0,0,0-3.2-.067l.273.2c1.36.98,2.766,1.9,4.2,2.763q1.068.653,2.161,1.269c.729.41,1.466.808,2.215,1.185A36.116,36.116,0,0,0,856.084,319a21.271,21.271,0,0,0,2.463.686,13.772,13.772,0,0,0,2.575.315,8.663,8.663,0,0,0,2.633-.329,6.248,6.248,0,0,0,2.366-1.3,6.843,6.843,0,0,0,1.595-2.13,10.6,10.6,0,0,0,.83-2.452,16.053,16.053,0,0,0,.27-1.721C868.534,312.049,868.254,312.034,867.973,312.028Z" transform="translate(-79.712 -143.85)"/><path class="a" d="M785.026,175.841h-7.214l-.684,1.114.5.361a.906.906,0,0,1,.279,1.135l-6.039,12.619c-.751,1.517-1.609,1.395-1.906-.272l-3.9-14.607a.507.507,0,0,0-.5-.418h-7.6a.507.507,0,0,0-.453.281l-14.457,28.4a.467.467,0,0,0,.453.733h6.814l8.56-14.534c.681-1.389,1.534-1.295,1.895.209l3.922,14.279-.023.046h6.586l14.2-28.656A.475.475,0,0,0,785.026,175.841Z" transform="translate(-7.043 -44.802)"/><g transform="translate(773.663 145.039)"><path class="b" d="M900.548,233.9l-2.675,10H886.4q-3.952,0-3.952-3.131a4.889,4.889,0,0,1,.122-1.216l.171-.533a3.291,3.291,0,0,0,.112-.462h0c.015-.086.032-.172.054-.257l.029-.116.037-.136a3.28,3.28,0,0,1,.152-.436c.042-.1.08-.18.115-.249a4.426,4.426,0,0,1,.669-1.034,5.309,5.309,0,0,1,1.976-1.49,8.01,8.01,0,0,1,3.557-.669h.516l.456.03,5.563-.03a3.327,3.327,0,0,0,.4-1.368,1.27,1.27,0,0,0-.821-1.246,4.679,4.679,0,0,0-1.915-.365l-.517.03h-.182l-7.022-.03.881-3.313h9.24l.426.061.487.061.608.122a5.065,5.065,0,0,1,2.189,1.094,3.219,3.219,0,0,1,1.064,2.584A12.556,12.556,0,0,1,900.548,233.9Zm-10.375,3.465a3.584,3.584,0,0,0-2.432.577A1.943,1.943,0,0,0,887.2,239a.79.79,0,0,0-.019.116l-.016.184.02.313q0,1.065,2.006,1.064h4.921a.874.874,0,0,0,.845-.65l.416-1.564a.874.874,0,0,0-.845-1.1Z" transform="translate(-882.452 -227.849)"/><path class="b" d="M984.885,231.871l-.091.669a6.01,6.01,0,0,1-.395,1.155l-2.705,10.122h-4.256l2.553-9.605a2.759,2.759,0,0,0,.3-1.246q0-1.763-2.918-1.763H976.12l-.274.061-.608.091-3.313,12.462h-4.012l3.173-11.855a.507.507,0,0,0-.489-.638H966l-3.344,12.493H958.4l4.286-16.019h16.85l.578-.031h.608l.425.061.517.061.547.121a3.636,3.636,0,0,1,1.884,1.034,2.817,2.817,0,0,1,.821,2.219Z" transform="translate(-937.851 -227.767)"/><path class="b" d="M1081.429,233.9l-2.675,10h-11.469q-3.952,0-3.952-3.131a4.882,4.882,0,0,1,.122-1.216l.17-.533a3.258,3.258,0,0,0,.112-.462h0c.015-.086.032-.172.054-.257l.029-.116.037-.136a3.28,3.28,0,0,1,.152-.436c.042-.1.08-.18.115-.249a4.43,4.43,0,0,1,.669-1.034,5.311,5.311,0,0,1,1.976-1.49,8.009,8.009,0,0,1,3.556-.669h.517l.456.03,5.563-.03a3.327,3.327,0,0,0,.4-1.368,1.27,1.27,0,0,0-.821-1.246,4.679,4.679,0,0,0-1.915-.365l-.517.03h-.182l-7.022-.03.881-3.313h9.24l.426.061.486.061.608.122a5.065,5.065,0,0,1,2.189,1.094,3.219,3.219,0,0,1,1.064,2.584A12.568,12.568,0,0,1,1081.429,233.9Zm-10.375,3.465a3.584,3.584,0,0,0-2.432.577,1.945,1.945,0,0,0-.542,1.059.807.807,0,0,0-.019.116l-.016.184.02.313q0,1.065,2.006,1.064h4.921a.874.874,0,0,0,.845-.65l.416-1.564a.874.874,0,0,0-.845-1.1Z" transform="translate(-1014.395 -227.849)"/><path class="b" d="M1159.7,233.9l-2.675,10h-11.47q-3.951,0-3.951-3.131a4.878,4.878,0,0,1,.122-1.216l.17-.533a3.309,3.309,0,0,0,.112-.462h0c.014-.086.032-.172.053-.257l.029-.116.037-.136a3.281,3.281,0,0,1,.152-.436c.042-.1.08-.18.115-.249a4.41,4.41,0,0,1,.669-1.034,5.308,5.308,0,0,1,1.976-1.49,8.011,8.011,0,0,1,3.557-.669h.517l.456.03,5.563-.03a3.328,3.328,0,0,0,.395-1.368,1.27,1.27,0,0,0-.821-1.246,4.678,4.678,0,0,0-1.915-.365l-.517.03h-.182l-7.022-.03.882-3.313h9.24l.426.061.486.061.608.122a5.063,5.063,0,0,1,2.188,1.094,3.219,3.219,0,0,1,1.064,2.584A12.556,12.556,0,0,1,1159.7,233.9Zm-10.375,3.465a3.585,3.585,0,0,0-2.432.577,1.948,1.948,0,0,0-.542,1.059.789.789,0,0,0-.019.116l-.016.184.02.313q0,1.065,2.006,1.064h4.921a.875.875,0,0,0,.845-.65l.416-1.564a.874.874,0,0,0-.845-1.1Z" transform="translate(-1071.488 -227.849)"/></g><g transform="translate(803.262 161.482)"><path class="c" d="M994.015,291.43v6.263H993V291.43h-1.146v-1.054h3.307v1.054Z" transform="translate(-991.853 -289.88)"/><path class="c" d="M1004.715,300.4c.009.827.276,1.5.775,1.5.353,0,.551-.32.681-.682l.715.5a1.518,1.518,0,0,1-1.43,1.2c-1.016,0-1.7-1.013-1.7-2.8,0-1.7.68-2.822,1.679-2.822,1.129,0,1.559,1.157,1.559,2.667v.444Zm.715-2.17c-.5,0-.7.817-.706,1.323h1.344C1006.067,298.778,1005.869,298.23,1005.43,298.23Z" transform="translate(-1000.538 -294.923)"/><path class="c" d="M1019.346,302.912c-1.085,0-1.645-1.168-1.645-2.822s.586-2.8,1.654-2.8a1.3,1.3,0,0,1,1.008.465l-.439.879a.64.64,0,0,0-.525-.29c-.473,0-.732.7-.732,1.747s.25,1.736.766,1.736a.6.6,0,0,0,.534-.31l.405.909A1.272,1.272,0,0,1,1019.346,302.912Z" transform="translate(-1010.708 -294.923)"/><path class="c" d="M1031.732,296.355v-3.307c0-.537-.069-1.126-.534-1.126-.431,0-.715.589-.715,1.385v3.049h-.974v-7.813h.974V291.9h.017a1.191,1.191,0,0,1,1.068-.992c.964,0,1.137,1.054,1.137,2.139v3.307Z" transform="translate(-1019.322 -288.542)"/><path class="c" d="M1046.223,297.466v.837h.017a1.225,1.225,0,0,1,1.094-1.013c.956,0,1.129,1.054,1.129,2.139v3.307h-.973v-3.307c0-.537-.069-1.126-.534-1.126-.431,0-.715.589-.715,1.385v3.049h-.973v-5.271Z" transform="translate(-1030.816 -294.923)"/><path class="c" d="M1061.693,302.912c-1.051,0-1.688-1.147-1.688-2.8,0-1.685.629-2.822,1.688-2.822s1.688,1.137,1.688,2.822C1063.381,301.765,1062.744,302.912,1061.693,302.912Zm0-4.609c-.5,0-.715.785-.715,1.8s.215,1.788.715,1.788.724-.785.724-1.788S1062.193,298.3,1061.693,298.3Z" transform="translate(-1041.566 -294.923)"/><path class="c" d="M1075.539,296.355v-7.813h.982v7.813Z" transform="translate(-1052.897 -288.542)"/><path class="c" d="M1083.911,302.912c-1.051,0-1.688-1.147-1.688-2.8,0-1.685.629-2.822,1.688-2.822s1.688,1.137,1.688,2.822C1085.6,301.765,1084.962,302.912,1083.911,302.912Zm0-4.609c-.5,0-.715.785-.715,1.8s.215,1.788.715,1.788.723-.785.723-1.788S1084.411,298.3,1083.911,298.3Z" transform="translate(-1057.773 -294.923)"/><path class="c" d="M1098.346,305.217a2,2,0,0,1-1.55-.775l.526-.837a1.288,1.288,0,0,0,1,.579c.646,0,.853-.661.853-1.509v-.641h-.017a1.049,1.049,0,0,1-.964.837c-.939,0-1.421-1.168-1.421-2.77,0-1.623.508-2.811,1.421-2.811.56,0,.836.393.973.92h.026v-.744h.93v5.126C1100.121,304.153,1099.63,305.217,1098.346,305.217Zm.12-6.914c-.508,0-.724.785-.724,1.788s.215,1.8.724,1.8c.483,0,.732-.8.732-1.8S1098.958,298.3,1098.467,298.3Z" transform="translate(-1068.384 -294.923)"/><path class="c" d="M1113.473,303.934c-.224,1.054-.594,1.757-1.456,1.757a1.826,1.826,0,0,1-.594-.093l.121-1.054a.961.961,0,0,0,.362.083c.31,0,.456-.238.534-.641l.129-.651-1.284-5.4h1.025l.766,3.969h.026l.7-3.969h.99Z" transform="translate(-1078.972 -295.397)"/></g><path class="a" d="M805.482,290.805,737.6,289.691v-.813l67.885,1.115Z" transform="translate(-3.125 -127.305)"/><path class="a" d="M805.583,311l-67.987-.709v-.813l67.987.709Z" transform="translate(-3.125 -142.33)"/><path class="a" d="M1150.679,297.687l-23.608-.507v-.813l23.608.507Z" transform="translate(-287.225 -132.769)"/><path class="a" d="M1150.406,313.76l-23.709-.1v-.813l23.709.1Z" transform="translate(-286.952 -144.788)"/></g></svg>