<svg width="38" height="40" viewBox="0 0 38 40" fill="none" xmlns="http://www.w3.org/2000/svg">
<path d="M2.92871 14.8559V7.55429C2.92871 5.22034 4.8228 3.32812 7.15911 3.32812C8.03605 3.32812 8.85063 3.59465 9.52612 4.05111L31.5739 16.7678C33.5908 17.9347 34.2789 20.5144 33.1108 22.5292C32.7325 23.1839 32.1844 23.7242 31.5244 24.0932L9.27431 36.9264C7.25744 38.0933 4.67516 37.4059 3.50711 35.3911C3.1344 34.7482 2.92802 34.0222 2.92878 33.278V25.967" stroke="#2C2F73" stroke-width="4.44444" stroke-miterlimit="22.9256" stroke-linecap="round" stroke-linejoin="round"/>
<path fill-rule="evenodd" clip-rule="evenodd" d="M0.70029 32.5435C0.700305 34.4754 2.83192 35.6472 4.46307 34.6121L23.4406 22.5686C24.9569 21.6063 24.9569 19.3936 23.4406 18.4313L4.46296 6.3879C2.8318 5.35275 0.700195 6.52461 0.700195 8.45651V20.4999L0.70029 32.5435Z" fill="#F21D2F"/>
<path d="M6.87305 17.8477C6.6582 18.043 6.42383 18.196 6.16992 18.3066C5.91602 18.4173 5.61654 18.4727 5.27148 18.4727C5.07617 18.4727 4.89388 18.4368 4.72461 18.3652C4.56185 18.2871 4.42188 18.1862 4.30469 18.0625C4.1875 17.9323 4.0931 17.7858 4.02148 17.623C3.95638 17.4603 3.92383 17.2878 3.92383 17.1055C3.92383 16.9232 3.95312 16.7669 4.01172 16.6367C4.07031 16.5 4.15169 16.3828 4.25586 16.2852C4.36003 16.1875 4.48047 16.0996 4.61719 16.0215C4.75391 15.9434 4.90039 15.862 5.05664 15.7773C5.38216 15.5625 5.67188 15.3444 5.92578 15.123C6.1862 14.9017 6.41732 14.6966 6.61914 14.5078C6.82096 14.3125 6.99674 14.1465 7.14648 14.0098C7.29622 13.873 7.42643 13.7786 7.53711 13.7266C7.60221 13.694 7.66081 13.668 7.71289 13.6484C7.77148 13.6224 7.83008 13.6061 7.88867 13.5996C7.94727 13.5866 8.01237 13.5801 8.08398 13.5801C8.1556 13.5736 8.24674 13.5703 8.35742 13.5703C8.69596 13.5703 8.96289 13.6387 9.1582 13.7754C9.36003 13.9121 9.50977 14.0911 9.60742 14.3125C9.71159 14.5273 9.77669 14.7715 9.80273 15.0449C9.82878 15.3184 9.8418 15.5951 9.8418 15.875V24.9375C9.8418 25.224 9.82878 25.5072 9.80273 25.7871C9.77669 26.0605 9.71159 26.3047 9.60742 26.5195C9.50977 26.7344 9.36003 26.9102 9.1582 27.0469C8.96289 27.1771 8.69596 27.2422 8.35742 27.2422C8.01237 27.2422 7.74219 27.1771 7.54688 27.0469C7.35156 26.9102 7.20182 26.7344 7.09766 26.5195C7 26.3047 6.93815 26.0605 6.91211 25.7871C6.88607 25.5072 6.87305 25.224 6.87305 24.9375V17.8477Z" fill="white"/>
</svg>
