<svg width="258" height="240" viewBox="0 0 258 240" fill="none" xmlns="http://www.w3.org/2000/svg">
<circle cx="129" cy="120" r="118.5" stroke="url(#paint0_linear_263_28531)" stroke-width="3"/>
<circle cx="129" cy="120" r="104" fill="url(#paint1_linear_263_28531)"/>
<circle cx="247.5" cy="119.5" r="9" stroke="url(#paint2_linear_263_28531)" stroke-width="3"/>
<circle cx="10.5" cy="119.5" r="9" stroke="url(#paint3_linear_263_28531)" stroke-width="3"/>
<path d="M119.771 124.572C117.982 124.572 116.354 124.161 114.887 123.34C113.42 122.504 112.152 121.353 111.081 119.886C110.025 118.419 109.211 116.725 108.639 114.804C108.067 112.868 107.781 110.8 107.781 108.6C107.781 106.4 108.067 104.339 108.639 102.418C109.211 100.482 110.025 98.7807 111.081 97.314C112.152 95.8473 113.42 94.7033 114.887 93.882C116.354 93.046 117.982 92.628 119.771 92.628C121.56 92.628 123.188 93.046 124.655 93.882C126.122 94.7033 127.376 95.8473 128.417 97.314C129.473 98.7807 130.287 100.482 130.859 102.418C131.446 104.339 131.739 106.4 131.739 108.6C131.739 110.8 131.446 112.868 130.859 114.804C130.287 116.725 129.473 118.419 128.417 119.886C127.376 121.353 126.122 122.504 124.655 123.34C123.188 124.161 121.56 124.572 119.771 124.572ZM119.771 119.204C121.34 119.204 122.638 118.705 123.665 117.708C124.692 116.711 125.454 115.405 125.953 113.792C126.452 112.179 126.701 110.448 126.701 108.6C126.701 106.649 126.437 104.875 125.909 103.276C125.381 101.663 124.604 100.379 123.577 99.426C122.55 98.4727 121.282 97.996 119.771 97.996C118.583 97.996 117.549 98.2893 116.669 98.876C115.804 99.448 115.085 100.233 114.513 101.23C113.941 102.227 113.516 103.364 113.237 104.64C112.958 105.901 112.819 107.221 112.819 108.6C112.819 110.433 113.068 112.164 113.567 113.792C114.08 115.405 114.85 116.711 115.877 117.708C116.918 118.705 118.216 119.204 119.771 119.204ZM147.931 124V116.542H134.819V111.152L146.677 93.2H153.299V111.174H155.895V116.542H153.299V124H147.931ZM141.045 111.152L147.931 111.174L147.909 100.526L141.045 111.152Z" fill="#2E2E2E"/>
<path d="M115.681 146.26C114.927 146.26 114.201 146.143 113.501 145.91C112.801 145.67 112.187 145.33 111.661 144.89C111.141 144.45 110.771 143.927 110.551 143.32L112.121 142.73C112.254 143.103 112.501 143.43 112.861 143.71C113.227 143.983 113.657 144.197 114.151 144.35C114.644 144.503 115.154 144.58 115.681 144.58C116.281 144.58 116.837 144.483 117.351 144.29C117.871 144.09 118.291 143.813 118.611 143.46C118.931 143.107 119.091 142.693 119.091 142.22C119.091 141.733 118.924 141.337 118.591 141.03C118.257 140.717 117.831 140.47 117.311 140.29C116.791 140.103 116.247 139.96 115.681 139.86C114.714 139.7 113.847 139.473 113.081 139.18C112.321 138.88 111.717 138.463 111.271 137.93C110.831 137.397 110.611 136.693 110.611 135.82C110.611 135.007 110.844 134.297 111.311 133.69C111.784 133.083 112.407 132.613 113.181 132.28C113.954 131.947 114.787 131.78 115.681 131.78C116.421 131.78 117.137 131.897 117.831 132.13C118.531 132.357 119.147 132.69 119.681 133.13C120.214 133.57 120.597 134.107 120.831 134.74L119.241 135.32C119.107 134.94 118.857 134.613 118.491 134.34C118.131 134.06 117.704 133.847 117.211 133.7C116.724 133.547 116.214 133.47 115.681 133.47C115.087 133.463 114.534 133.56 114.021 133.76C113.507 133.96 113.091 134.237 112.771 134.59C112.451 134.943 112.291 135.353 112.291 135.82C112.291 136.38 112.437 136.81 112.731 137.11C113.031 137.403 113.437 137.623 113.951 137.77C114.464 137.917 115.041 138.047 115.681 138.16C116.587 138.313 117.427 138.557 118.201 138.89C118.974 139.217 119.594 139.653 120.061 140.2C120.534 140.747 120.771 141.42 120.771 142.22C120.771 143.033 120.534 143.743 120.061 144.35C119.594 144.957 118.974 145.427 118.201 145.76C117.427 146.093 116.587 146.26 115.681 146.26ZM133.118 132V133.68H128.458V146H126.778V133.68H122.128V132H133.118ZM135.126 146V132H143.716V133.68H136.806V137.66H142.466V139.34H136.806V144.32H143.716V146H135.126ZM146.024 146V132H150.644C151.398 132 152.074 132.183 152.674 132.55C153.281 132.917 153.761 133.413 154.114 134.04C154.474 134.66 154.654 135.353 154.654 136.12C154.654 136.9 154.471 137.603 154.104 138.23C153.744 138.85 153.258 139.343 152.644 139.71C152.038 140.07 151.371 140.25 150.644 140.25H147.704V146H146.024ZM147.704 138.57H150.494C150.948 138.57 151.361 138.46 151.734 138.24C152.114 138.013 152.414 137.71 152.634 137.33C152.861 136.943 152.974 136.51 152.974 136.03C152.974 135.543 152.861 135.11 152.634 134.73C152.414 134.343 152.114 134.04 151.734 133.82C151.361 133.593 150.948 133.48 150.494 133.48H147.704V138.57Z" fill="#2E2E2E"/>
<defs>
<linearGradient id="paint0_linear_263_28531" x1="50" y1="27" x2="197.5" y2="218" gradientUnits="userSpaceOnUse">
<stop stop-color="#EC6271"/>
<stop offset="1" stop-color="#F04149"/>
</linearGradient>
<linearGradient id="paint1_linear_263_28531" x1="49" y1="47" x2="201" y2="195.5" gradientUnits="userSpaceOnUse">
<stop stop-color="#EC6271"/>
<stop offset="1" stop-color="#F13F47"/>
</linearGradient>
<linearGradient id="paint2_linear_263_28531" x1="240.587" y1="111.362" x2="253.494" y2="128.075" gradientUnits="userSpaceOnUse">
<stop stop-color="#EC6271"/>
<stop offset="1" stop-color="#F04149"/>
</linearGradient>
<linearGradient id="paint3_linear_263_28531" x1="3.5875" y1="111.362" x2="16.4938" y2="128.075" gradientUnits="userSpaceOnUse">
<stop stop-color="#EC6271"/>
<stop offset="1" stop-color="#F04149"/>
</linearGradient>
</defs>
</svg>
