<svg width="258" height="240" viewBox="0 0 258 240" fill="none" xmlns="http://www.w3.org/2000/svg">
<circle cx="129" cy="120" r="118.5" stroke="url(#paint0_linear_263_28544)" stroke-width="3"/>
<circle cx="129" cy="120" r="104" fill="url(#paint1_linear_263_28544)"/>
<circle cx="247.5" cy="119.5" r="9" stroke="url(#paint2_linear_263_28544)" stroke-width="3"/>
<circle cx="10.5" cy="119.5" r="9" stroke="url(#paint3_linear_263_28544)" stroke-width="3"/>
<path d="M119.753 124.572C117.964 124.572 116.336 124.161 114.869 123.34C113.403 122.504 112.134 121.353 111.063 119.886C110.007 118.419 109.193 116.725 108.621 114.804C108.049 112.868 107.763 110.8 107.763 108.6C107.763 106.4 108.049 104.339 108.621 102.418C109.193 100.482 110.007 98.7807 111.063 97.314C112.134 95.8473 113.403 94.7033 114.869 93.882C116.336 93.046 117.964 92.628 119.753 92.628C121.543 92.628 123.171 93.046 124.637 93.882C126.104 94.7033 127.358 95.8473 128.399 97.314C129.455 98.7807 130.269 100.482 130.841 102.418C131.428 104.339 131.721 106.4 131.721 108.6C131.721 110.8 131.428 112.868 130.841 114.804C130.269 116.725 129.455 118.419 128.399 119.886C127.358 121.353 126.104 122.504 124.637 123.34C123.171 124.161 121.543 124.572 119.753 124.572ZM119.753 119.204C121.323 119.204 122.621 118.705 123.647 117.708C124.674 116.711 125.437 115.405 125.935 113.792C126.434 112.179 126.683 110.448 126.683 108.6C126.683 106.649 126.419 104.875 125.891 103.276C125.363 101.663 124.586 100.379 123.559 99.426C122.533 98.4727 121.264 97.996 119.753 97.996C118.565 97.996 117.531 98.2893 116.651 98.876C115.786 99.448 115.067 100.233 114.495 101.23C113.923 102.227 113.498 103.364 113.219 104.64C112.941 105.901 112.801 107.221 112.801 108.6C112.801 110.433 113.051 112.164 113.549 113.792C114.063 115.405 114.833 116.711 115.859 117.708C116.901 118.705 118.199 119.204 119.753 119.204ZM144.283 124.572C142.42 124.572 140.741 124.132 139.245 123.252C137.749 122.372 136.561 121.191 135.681 119.71C134.801 118.214 134.361 116.557 134.361 114.738H139.729C139.729 115.559 139.92 116.307 140.301 116.982C140.697 117.657 141.24 118.199 141.929 118.61C142.618 119.006 143.403 119.204 144.283 119.204C145.09 119.204 145.838 119.006 146.527 118.61C147.231 118.199 147.796 117.657 148.221 116.982C148.646 116.307 148.859 115.559 148.859 114.738C148.859 113.667 148.573 112.78 148.001 112.076C147.429 111.357 146.63 110.822 145.603 110.47C144.591 110.118 143.41 109.942 142.061 109.942V105.806C143.88 105.806 145.317 105.461 146.373 104.772C147.444 104.083 147.979 103.071 147.979 101.736C147.979 101.047 147.803 100.416 147.451 99.844C147.099 99.272 146.63 98.8173 146.043 98.48C145.471 98.128 144.84 97.952 144.151 97.952C143.447 97.952 142.765 98.128 142.105 98.48C141.445 98.8173 140.902 99.272 140.477 99.844C140.066 100.416 139.861 101.047 139.861 101.736H134.493C134.493 100.475 134.75 99.294 135.263 98.194C135.776 97.0793 136.48 96.104 137.375 95.268C138.284 94.432 139.311 93.7793 140.455 93.31C141.614 92.826 142.824 92.584 144.085 92.584C145.742 92.584 147.275 92.9947 148.683 93.816C150.091 94.6373 151.22 95.7373 152.071 97.116C152.922 98.4947 153.347 100.035 153.347 101.736C153.347 102.924 153.068 104.09 152.511 105.234C151.954 106.378 151.162 107.185 150.135 107.654C151.03 107.977 151.778 108.519 152.379 109.282C152.98 110.03 153.435 110.888 153.743 111.856C154.066 112.809 154.227 113.77 154.227 114.738C154.227 116.542 153.772 118.192 152.863 119.688C151.954 121.169 150.744 122.357 149.233 123.252C147.737 124.132 146.087 124.572 144.283 124.572Z" fill="#2E2E2E"/>
<path d="M114.181 146.26C113.427 146.26 112.701 146.143 112.001 145.91C111.301 145.67 110.687 145.33 110.161 144.89C109.641 144.45 109.271 143.927 109.051 143.32L110.621 142.73C110.754 143.103 111.001 143.43 111.361 143.71C111.727 143.983 112.157 144.197 112.651 144.35C113.144 144.503 113.654 144.58 114.181 144.58C114.781 144.58 115.337 144.483 115.851 144.29C116.371 144.09 116.791 143.813 117.111 143.46C117.431 143.107 117.591 142.693 117.591 142.22C117.591 141.733 117.424 141.337 117.091 141.03C116.757 140.717 116.331 140.47 115.811 140.29C115.291 140.103 114.747 139.96 114.181 139.86C113.214 139.7 112.347 139.473 111.581 139.18C110.821 138.88 110.217 138.463 109.771 137.93C109.331 137.397 109.111 136.693 109.111 135.82C109.111 135.007 109.344 134.297 109.811 133.69C110.284 133.083 110.907 132.613 111.681 132.28C112.454 131.947 113.287 131.78 114.181 131.78C114.921 131.78 115.637 131.897 116.331 132.13C117.031 132.357 117.647 132.69 118.181 133.13C118.714 133.57 119.097 134.107 119.331 134.74L117.741 135.32C117.607 134.94 117.357 134.613 116.991 134.34C116.631 134.06 116.204 133.847 115.711 133.7C115.224 133.547 114.714 133.47 114.181 133.47C113.587 133.463 113.034 133.56 112.521 133.76C112.007 133.96 111.591 134.237 111.271 134.59C110.951 134.943 110.791 135.353 110.791 135.82C110.791 136.38 110.937 136.81 111.231 137.11C111.531 137.403 111.937 137.623 112.451 137.77C112.964 137.917 113.541 138.047 114.181 138.16C115.087 138.313 115.927 138.557 116.701 138.89C117.474 139.217 118.094 139.653 118.561 140.2C119.034 140.747 119.271 141.42 119.271 142.22C119.271 143.033 119.034 143.743 118.561 144.35C118.094 144.957 117.474 145.427 116.701 145.76C115.927 146.093 115.087 146.26 114.181 146.26ZM131.618 132V133.68H126.958V146H125.278V133.68H120.628V132H131.618ZM133.626 146V132H142.216V133.68H135.306V137.66H140.966V139.34H135.306V144.32H142.216V146H133.626ZM144.524 146V132H149.144C149.898 132 150.574 132.183 151.174 132.55C151.781 132.917 152.261 133.413 152.614 134.04C152.974 134.66 153.154 135.353 153.154 136.12C153.154 136.9 152.971 137.603 152.604 138.23C152.244 138.85 151.758 139.343 151.144 139.71C150.538 140.07 149.871 140.25 149.144 140.25H146.204V146H144.524ZM146.204 138.57H148.994C149.448 138.57 149.861 138.46 150.234 138.24C150.614 138.013 150.914 137.71 151.134 137.33C151.361 136.943 151.474 136.51 151.474 136.03C151.474 135.543 151.361 135.11 151.134 134.73C150.914 134.343 150.614 134.04 150.234 133.82C149.861 133.593 149.448 133.48 148.994 133.48H146.204V138.57Z" fill="#2E2E2E"/>
<defs>
<linearGradient id="paint0_linear_263_28544" x1="85.5" y1="6.5" x2="190.5" y2="222" gradientUnits="userSpaceOnUse">
<stop stop-color="#6BCDEE"/>
<stop offset="1" stop-color="#1CC0CB"/>
</linearGradient>
<linearGradient id="paint1_linear_263_28544" x1="75.5" y1="33" x2="191.5" y2="206.5" gradientUnits="userSpaceOnUse">
<stop stop-color="#6BCDEE"/>
<stop offset="1" stop-color="#1CC0CB"/>
</linearGradient>
<linearGradient id="paint2_linear_263_28544" x1="243.694" y1="109.569" x2="252.881" y2="128.425" gradientUnits="userSpaceOnUse">
<stop stop-color="#6BCDEE"/>
<stop offset="1" stop-color="#1CC0CB"/>
</linearGradient>
<linearGradient id="paint3_linear_263_28544" x1="6.69375" y1="109.569" x2="15.8812" y2="128.425" gradientUnits="userSpaceOnUse">
<stop stop-color="#6BCDEE"/>
<stop offset="1" stop-color="#1CC0CB"/>
</linearGradient>
</defs>
</svg>
