<svg width="19" height="16" viewBox="0 0 19 16" fill="none" xmlns="http://www.w3.org/2000/svg">
<path d="M18.0993 2.53477C17.4351 2.82559 16.7124 3.03489 15.9679 3.1164C16.7408 2.65029 17.3196 1.91392 17.5957 1.04544C16.8704 1.4834 16.0759 1.79051 15.2473 1.95314C14.901 1.57734 14.4822 1.27796 14.0169 1.07365C13.5516 0.869348 13.0499 0.764497 12.5429 0.765634C10.4919 0.765634 8.84235 2.45325 8.84235 4.52422C8.84235 4.81504 8.87708 5.10585 8.93351 5.38566C5.86234 5.22262 3.12325 3.73329 1.30226 1.45302C0.970452 2.0283 0.796574 2.68332 0.798715 3.34994C0.798715 4.65421 1.45202 5.80426 2.44825 6.48063C1.86115 6.45715 1.28781 6.29335 0.77484 6.00254V6.04881C0.77484 7.87522 2.04672 9.38879 3.74183 9.73689C3.42355 9.82081 3.09614 9.86374 2.7673 9.86468C2.52638 9.86468 2.29849 9.84044 2.06842 9.80739C2.53723 11.2967 3.90244 12.3785 5.5281 12.4137C4.25622 13.425 2.66312 14.0198 0.933282 14.0198C0.62291 14.0198 0.336412 14.0088 0.0390625 13.9736C1.67991 15.0421 3.62679 15.659 5.72343 15.659C12.5299 15.659 16.2544 9.93518 16.2544 4.96706C16.2544 4.80402 16.2544 4.64099 16.2435 4.47795C16.9641 3.94259 17.5957 3.27944 18.0993 2.53477Z" fill="#2C2F73"/>
</svg>
